<svg width="751" height="1080" viewBox="0 0 751 1080" fill="none" xmlns="http://www.w3.org/2000/svg">
<path fill-rule="evenodd" clip-rule="evenodd" d="M751.011 1087.99C1053.65 1087.99 1298.99 842.653 1298.99 540.011C1298.99 237.369 1053.65 -7.97006 751.011 -7.97006C448.369 -7.97006 203.03 237.369 203.03 540.011C203.03 842.653 448.369 1087.99 751.011 1087.99ZM751.011 1291.02C1165.78 1291.02 1502.02 954.783 1502.02 540.011C1502.02 125.239 1165.78 -211 751.011 -211C336.239 -211 0 125.239 0 540.011C0 954.783 336.239 1291.02 751.011 1291.02Z" fill="#FF1010"/>
<path d="M1104.43 540.014C1104.43 735.2 946.203 893.43 751.016 893.43C555.829 893.43 397.599 735.2 397.599 540.014C397.599 344.827 555.829 186.597 751.016 186.597C946.203 186.597 1104.43 344.827 1104.43 540.014Z" fill="#FF1010"/>
</svg>
