<svg width="230" height="80" viewBox="0 0 230 80" fill="none" xmlns="http://www.w3.org/2000/svg">
<path d="M0 35.3608V12.9935H3.82973V31.8977H15.3597V12.9935H19.1486V31.8977H23.0191V40.5757H20.3302L19.2301 35.3608H0Z" fill="black"/>
<path d="M25.408 35.3608V12.9935H29.1969V29.9421L41.6232 12.9935H45.4529V35.3608H41.6639V18.3714L29.2377 35.3608H25.408Z" fill="black"/>
<path d="M79.0105 43.1017V12.9935H82.6772V16.4158C83.6007 15.1121 84.7686 14.1343 86.181 13.4824C87.5934 12.8034 89.1959 12.4639 90.9885 12.4639C92.6454 12.4639 94.18 12.7626 95.5924 13.3602C97.0048 13.9306 98.227 14.7454 99.2591 15.8047C100.291 16.8368 101.093 18.0727 101.663 19.5122C102.26 20.9246 102.559 22.4728 102.559 24.1568C102.559 25.8408 102.26 27.4025 101.663 28.8421C101.065 30.2545 100.237 31.4903 99.1776 32.5496C98.1455 33.5817 96.9233 34.3965 95.5109 34.9941C94.0985 35.5916 92.5639 35.8904 90.9071 35.8904C89.1959 35.8904 87.6749 35.5781 86.344 34.9533C85.0131 34.3286 83.8452 33.378 82.8402 32.1014V43.1017H79.0105ZM90.7034 32.3866C91.817 32.3866 92.8627 32.1829 93.8405 31.7755C94.8183 31.3409 95.6603 30.7705 96.3665 30.0643C97.0998 29.331 97.6702 28.4754 98.0776 27.4976C98.485 26.4926 98.6888 25.4062 98.6888 24.2383C98.6888 23.0432 98.485 21.9431 98.0776 20.9382C97.6702 19.906 97.0998 19.0233 96.3665 18.2899C95.6603 17.5566 94.8047 16.9862 93.7997 16.5788C92.8219 16.1714 91.7355 15.9677 90.5404 15.9677C89.4268 15.9677 88.3811 16.185 87.4033 16.6195C86.4526 17.0269 85.6106 17.6109 84.8773 18.3714C84.1711 19.1048 83.6143 19.9739 83.2069 20.9789C82.7994 21.9839 82.5957 23.0567 82.5957 24.1975C82.5957 25.3654 82.7994 26.4519 83.2069 27.4569C83.6143 28.4347 84.1847 29.3038 84.918 30.0643C85.6514 30.7977 86.507 31.3681 87.4848 31.7755C88.4626 32.1829 89.5354 32.3866 90.7034 32.3866Z" fill="black"/>
<path d="M104.344 24.1975C104.344 22.5135 104.643 20.9517 105.24 19.5122C105.838 18.0727 106.666 16.8368 107.725 15.8047C108.812 14.7454 110.075 13.9306 111.514 13.3602C112.981 12.7626 114.57 12.4639 116.281 12.4639C117.911 12.4639 119.432 12.7626 120.844 13.3602C122.257 13.9577 123.479 14.7862 124.511 15.8454C125.543 16.9047 126.358 18.1541 126.956 19.5937C127.553 21.0061 127.852 22.5543 127.852 24.2383C127.852 25.8951 127.553 27.4297 126.956 28.8421C126.385 30.2545 125.584 31.4903 124.552 32.5496C123.52 33.5817 122.297 34.3965 120.885 34.9941C119.473 35.5916 117.938 35.8904 116.281 35.8904C114.597 35.8904 113.022 35.5916 111.555 34.9941C110.116 34.3965 108.853 33.5817 107.766 32.5496C106.707 31.4903 105.865 30.2545 105.24 28.8421C104.643 27.4025 104.344 25.8543 104.344 24.1975ZM116.241 32.3866C117.354 32.3866 118.386 32.1829 119.337 31.7755C120.288 31.3681 121.102 30.8113 121.781 30.1051C122.488 29.3717 123.031 28.5026 123.411 27.4976C123.818 26.4926 124.022 25.4062 124.022 24.2383C124.022 23.0432 123.818 21.9431 123.411 20.9382C123.031 19.906 122.474 19.0233 121.741 18.2899C121.034 17.5566 120.192 16.9862 119.215 16.5788C118.237 16.1714 117.178 15.9677 116.037 15.9677C114.923 15.9677 113.891 16.185 112.94 16.6195C111.99 17.0269 111.161 17.5973 110.455 18.3307C109.776 19.064 109.233 19.9468 108.825 20.9789C108.418 21.9839 108.214 23.0567 108.214 24.1975C108.214 25.3654 108.418 26.4519 108.825 27.4569C109.233 28.4347 109.79 29.2902 110.496 30.0236C111.229 30.7569 112.085 31.3409 113.063 31.7755C114.04 32.1829 115.1 32.3866 116.241 32.3866Z" fill="black"/>
<path d="M130.636 35.3608V12.9935H139.681C142.18 12.9935 144.135 13.5367 145.548 14.6232C146.96 15.7096 147.666 17.2307 147.666 19.1863C147.666 20.0554 147.381 20.8974 146.811 21.7123C146.268 22.5271 145.589 23.1111 144.774 23.4642C146.05 23.9531 147.015 24.6321 147.666 25.5012C148.318 26.3432 148.644 27.3482 148.644 28.5161C148.644 29.4939 148.441 30.4038 148.033 31.2458C147.653 32.0878 147.096 32.8212 146.363 33.4459C145.657 34.0434 144.801 34.5188 143.796 34.8719C142.818 35.1978 141.745 35.3608 140.577 35.3608H130.636ZM134.466 22.1197H139.355C140.849 22.1197 141.99 21.8752 142.777 21.3863C143.592 20.8703 144 20.1369 144 19.1863C144 18.2899 143.606 17.6109 142.818 17.1492C142.031 16.6874 140.876 16.4566 139.355 16.4566H134.466V22.1197ZM134.466 31.8977H139.926C141.474 31.8977 142.669 31.6125 143.511 31.0421C144.38 30.4446 144.815 29.6026 144.815 28.5161C144.815 27.4297 144.394 26.6149 143.552 26.0716C142.737 25.5284 141.528 25.2568 139.926 25.2568H134.466V31.8977Z" fill="black"/>
<path d="M150.36 24.2383C150.36 22.5271 150.659 20.9653 151.256 19.5529C151.854 18.1134 152.669 16.8776 153.701 15.8454C154.733 14.7862 155.955 13.9577 157.367 13.3602C158.807 12.7626 160.355 12.4639 162.012 12.4639C163.886 12.4639 165.475 12.7898 166.779 13.4417C168.11 14.0935 169.305 15.1528 170.364 16.6195V12.9935H174.031V35.3608H170.364V31.7755C169.196 33.2694 167.987 34.3286 166.738 34.9533C165.489 35.5781 163.954 35.8904 162.134 35.8904C160.45 35.8904 158.888 35.6052 157.449 35.0348C156.009 34.4373 154.76 33.6224 153.701 32.5903C152.669 31.5582 151.854 30.3359 151.256 28.9236C150.659 27.484 150.36 25.9222 150.36 24.2383ZM154.23 24.1975C154.23 25.3654 154.434 26.4519 154.841 27.4569C155.276 28.4347 155.846 29.2902 156.553 30.0236C157.286 30.7569 158.142 31.3409 159.119 31.7755C160.124 32.1829 161.211 32.3866 162.379 32.3866C163.519 32.3866 164.565 32.1829 165.516 31.7755C166.494 31.3409 167.336 30.7569 168.042 30.0236C168.748 29.2902 169.291 28.4347 169.671 27.4569C170.079 26.4519 170.283 25.3519 170.283 24.1568C170.283 22.9617 170.079 21.8752 169.671 20.8974C169.264 19.8925 168.694 19.0233 167.96 18.2899C167.254 17.5566 166.399 16.9862 165.394 16.5788C164.416 16.1714 163.343 15.9677 162.175 15.9677C161.061 15.9677 160.016 16.185 159.038 16.6195C158.087 17.0269 157.245 17.6109 156.512 18.3714C155.806 19.1048 155.249 19.9739 154.841 20.9789C154.434 21.9567 154.23 23.0296 154.23 24.1975Z" fill="black"/>
<path d="M189.665 23.3012V16.4566H185.02C183.554 16.4566 182.44 16.7553 181.679 17.3529C180.919 17.9233 180.539 18.7653 180.539 19.8789C180.539 20.9925 180.919 21.8481 181.679 22.4456C182.44 23.016 183.554 23.3012 185.02 23.3012H189.665ZM175.731 35.3608L181.924 26.4383C180.294 26.0037 179.004 25.2025 178.053 24.0345C177.13 22.8394 176.668 21.4542 176.668 19.8789C176.668 18.8739 176.858 17.9504 177.239 17.1084C177.619 16.2664 178.149 15.5467 178.828 14.9491C179.534 14.3244 180.349 13.8491 181.272 13.5232C182.223 13.1701 183.268 12.9935 184.409 12.9935H193.495V35.3608H189.665V26.7642H185.957L180.172 35.3608H175.731Z" fill="black"/>
<path d="M0 72.259V49.8917H3.82973V59.955L13.2003 49.8917H18.0079L7.57798 60.8106L18.1708 72.259H13.2003L3.82973 61.7884V72.259H0Z" fill="black"/>
<path d="M19.8317 61.1365C19.8317 59.4253 20.1305 57.8636 20.728 56.4512C21.3256 55.0116 22.1404 53.7758 23.1725 52.7437C24.2047 51.6844 25.4269 50.856 26.8393 50.2584C28.2788 49.6609 29.827 49.3621 31.4839 49.3621C33.358 49.3621 34.9469 49.688 36.2507 50.3399C37.5816 50.9918 38.7766 52.0511 39.8359 53.5178V49.8917H43.5027V72.259H39.8359V68.6737C38.668 70.1676 37.4593 71.2269 36.2099 71.8516C34.9605 72.4763 33.4259 72.7886 31.6061 72.7886C29.9221 72.7886 28.3603 72.5035 26.9208 71.9331C25.4812 71.3355 24.2318 70.5207 23.1725 69.4886C22.1404 68.4564 21.3256 67.2342 20.728 65.8218C20.1305 64.3823 19.8317 62.8205 19.8317 61.1365ZM23.7022 61.0957C23.7022 62.2637 23.9059 63.3501 24.3133 64.3551C24.7479 65.3329 25.3183 66.1885 26.0245 66.9218C26.7578 67.6552 27.6134 68.2391 28.5912 68.6737C29.5962 69.0811 30.6826 69.2849 31.8505 69.2849C32.9913 69.2849 34.037 69.0811 34.9877 68.6737C35.9655 68.2391 36.8075 67.6552 37.5137 66.9218C38.2198 66.1885 38.7631 65.3329 39.1433 64.3551C39.5507 63.3501 39.7545 62.2501 39.7545 61.055C39.7545 59.8599 39.5507 58.7735 39.1433 57.7957C38.7359 56.7907 38.1655 55.9215 37.4322 55.1882C36.726 54.4548 35.8704 53.8844 34.8654 53.477C33.8876 53.0696 32.8148 52.8659 31.6468 52.8659C30.5332 52.8659 29.4875 53.0832 28.5097 53.5178C27.5591 53.9252 26.7171 54.5092 25.9837 55.2697C25.2775 56.003 24.7207 56.8722 24.3133 57.8771C23.9059 58.8549 23.7022 59.9278 23.7022 61.0957Z" fill="black"/>
<path d="M98.0136 65.1292H102.047C101.667 66.27 101.11 67.3157 100.377 68.2663C99.6705 69.1898 98.8421 69.991 97.8914 70.6701C96.9679 71.3491 95.9358 71.8787 94.795 72.259C93.6543 72.6121 92.4728 72.7886 91.2505 72.7886C89.5665 72.7886 88.0047 72.4899 86.5652 71.8923C85.1256 71.2676 83.8627 70.4256 82.7762 69.3663C81.7169 68.307 80.8749 67.0712 80.2502 65.6588C79.6255 64.2193 79.3131 62.6711 79.3131 61.0143C79.3131 59.3846 79.6119 57.8636 80.2095 56.4512C80.8342 55.0388 81.6626 53.803 82.6947 52.7437C83.754 51.6844 84.9898 50.856 86.4022 50.2584C87.8418 49.6609 89.3628 49.3621 90.9653 49.3621C92.595 49.3621 94.116 49.6745 95.5284 50.2992C96.9679 50.8967 98.2174 51.7251 99.2766 52.7844C100.336 53.8165 101.164 55.0388 101.762 56.4512C102.387 57.8636 102.699 59.3846 102.699 61.0143C102.699 61.2859 102.685 61.5439 102.658 61.7884C102.631 62.0056 102.59 62.2501 102.536 62.5217H83.3058C83.3873 63.4995 83.6454 64.3958 84.0799 65.2107C84.5417 66.0255 85.1121 66.7453 85.7911 67.37C86.4973 67.9675 87.3121 68.4429 88.2356 68.796C89.1591 69.1219 90.1369 69.2849 91.169 69.2849C92.6629 69.2849 94.0074 68.9182 95.2025 68.1848C96.4247 67.4515 97.3618 66.4329 98.0136 65.1292ZM83.3058 59.1401H98.8285C98.3667 57.1574 97.4433 55.6228 96.058 54.5363C94.7 53.4227 93.016 52.8659 91.0061 52.8659C90.0282 52.8659 89.1183 53.0153 88.2764 53.3141C87.4344 53.5857 86.6738 54.0067 85.9948 54.5771C85.3429 55.1203 84.7861 55.7857 84.3244 56.5734C83.8627 57.3339 83.5231 58.1895 83.3058 59.1401Z" fill="black"/>
<path d="M103.443 77.474V68.796H106.498L114.606 49.8917H118.436L126.543 68.796H129.599V77.474H126.951L125.81 72.259H107.232L106.132 77.474H103.443ZM110.491 68.796H122.551L116.521 54.6585L110.491 68.796Z" fill="black"/>
<path d="M132.65 79.9999V49.8917H136.316V53.3141C137.24 52.0103 138.408 51.0325 139.82 50.3806C141.233 49.7016 142.835 49.3621 144.628 49.3621C146.285 49.3621 147.819 49.6609 149.232 50.2584C150.644 50.8288 151.866 51.6436 152.898 52.7029C153.93 53.7351 154.732 54.9709 155.302 56.4104C155.9 57.8228 156.198 59.371 156.198 61.055C156.198 62.739 155.9 64.3008 155.302 65.7403C154.704 67.1527 153.876 68.3885 152.817 69.4478C151.785 70.4799 150.562 71.2948 149.15 71.8923C147.738 72.4899 146.203 72.7886 144.546 72.7886C142.835 72.7886 141.314 72.4763 139.983 71.8516C138.652 71.2269 137.484 70.2762 136.479 68.9997V79.9999H132.65ZM144.342 69.2849C145.456 69.2849 146.502 69.0811 147.48 68.6737C148.457 68.2391 149.299 67.6688 150.006 66.9626C150.739 66.2292 151.309 65.3736 151.717 64.3958C152.124 63.3909 152.328 62.3044 152.328 61.1365C152.328 59.9414 152.124 58.8414 151.717 57.8364C151.309 56.8043 150.739 55.9215 150.006 55.1882C149.299 54.4548 148.444 53.8844 147.439 53.477C146.461 53.0696 145.375 52.8659 144.18 52.8659C143.066 52.8659 142.02 53.0832 141.042 53.5178C140.092 53.9252 139.25 54.5092 138.516 55.2697C137.81 56.003 137.253 56.8722 136.846 57.8771C136.439 58.8821 136.235 59.955 136.235 61.0957C136.235 62.2637 136.439 63.3501 136.846 64.3551C137.253 65.3329 137.824 66.2021 138.557 66.9626C139.29 67.6959 140.146 68.2663 141.124 68.6737C142.102 69.0811 143.175 69.2849 144.342 69.2849Z" fill="black"/>
<path d="M159.205 61.1365C159.205 59.4253 159.504 57.8636 160.102 56.4512C160.699 55.0116 161.514 53.7758 162.546 52.7437C163.578 51.6844 164.8 50.856 166.213 50.2584C167.652 49.6609 169.201 49.3621 170.857 49.3621C172.732 49.3621 174.32 49.688 175.624 50.3399C176.955 50.9918 178.15 52.0511 179.21 53.5178V49.8917H182.876V72.259H179.21V68.6737C178.042 70.1676 176.833 71.2269 175.583 71.8516C174.334 72.4763 172.799 72.7886 170.98 72.7886C169.296 72.7886 167.734 72.5035 166.294 71.9331C164.855 71.3355 163.605 70.5207 162.546 69.4886C161.514 68.4564 160.699 67.2342 160.102 65.8218C159.504 64.3823 159.205 62.8205 159.205 61.1365ZM163.076 61.0957C163.076 62.2637 163.279 63.3501 163.687 64.3551C164.121 65.3329 164.692 66.1885 165.398 66.9218C166.131 67.6552 166.987 68.2391 167.965 68.6737C168.97 69.0811 170.056 69.2849 171.224 69.2849C172.365 69.2849 173.411 69.0811 174.361 68.6737C175.339 68.2391 176.181 67.6552 176.887 66.9218C177.593 66.1885 178.137 65.3329 178.517 64.3551C178.924 63.3501 179.128 62.2501 179.128 61.055C179.128 59.8599 178.924 58.7735 178.517 57.7957C178.109 56.7907 177.539 55.9215 176.806 55.1882C176.1 54.4548 175.244 53.8844 174.239 53.477C173.261 53.0696 172.188 52.8659 171.02 52.8659C169.907 52.8659 168.861 53.0832 167.883 53.5178C166.933 53.9252 166.091 54.5092 165.357 55.2697C164.651 56.003 164.094 56.8722 163.687 57.8771C163.279 58.8549 163.076 59.9278 163.076 61.0957Z" fill="black"/>
<path fill-rule="evenodd" clip-rule="evenodd" d="M62.1277 33.5578C67.4997 33.5578 71.8546 29.2029 71.8546 23.8308C71.8546 18.4588 67.4997 14.1039 62.1277 14.1039C56.7557 14.1039 52.4008 18.4588 52.4008 23.8308C52.4008 29.2029 56.7557 33.5578 62.1277 33.5578ZM62.1277 36.8989C69.345 36.8989 75.1958 31.0481 75.1958 23.8308C75.1958 16.6135 69.345 10.7627 62.1277 10.7627C54.9104 10.7627 49.0596 16.6135 49.0596 23.8308C49.0596 31.0481 54.9104 36.8989 62.1277 36.8989Z" fill="black"/>
<path fill-rule="evenodd" clip-rule="evenodd" d="M62.1277 71.2247C67.4997 71.2247 71.8546 66.8698 71.8546 61.4978C71.8546 56.1258 67.4997 51.7709 62.1277 51.7709C56.7557 51.7709 52.4008 56.1258 52.4008 61.4978C52.4008 66.8698 56.7557 71.2247 62.1277 71.2247ZM62.1277 74.5659C69.345 74.5659 75.1958 68.7151 75.1958 61.4978C75.1958 54.2805 69.345 48.4297 62.1277 48.4297C54.9104 48.4297 49.0596 54.2805 49.0596 61.4978C49.0596 68.7151 54.9104 74.5659 62.1277 74.5659Z" fill="black"/>
<rect x="60.3438" y="7.6875" width="3.84357" height="34.5921" fill="black"/>
<rect x="60.3438" y="45.3545" width="3.84357" height="34.5921" fill="black"/>
<path fill-rule="evenodd" clip-rule="evenodd" d="M216.464 22.6034C221.73 22.6034 225.999 18.3343 225.999 13.0681C225.999 7.80195 221.73 3.53287 216.464 3.53287C211.197 3.53287 206.928 7.80195 206.928 13.0681C206.928 18.3343 211.197 22.6034 216.464 22.6034ZM216.464 26.1363C223.681 26.1363 229.532 20.2855 229.532 13.0681C229.532 5.8508 223.681 0 216.464 0C209.246 0 203.396 5.8508 203.396 13.0681C203.396 20.2855 209.246 26.1363 216.464 26.1363Z" fill="#FF1010"/>
<path d="M222.613 13.0677C222.613 16.4641 219.86 19.2174 216.463 19.2174C213.067 19.2174 210.313 16.4641 210.313 13.0677C210.313 9.67129 213.067 6.91797 216.463 6.91797C219.86 6.91797 222.613 9.67129 222.613 13.0677Z" fill="#FF1010"/>
</svg>
