<svg width="126" height="132" viewBox="0 0 126 132" fill="none" xmlns="http://www.w3.org/2000/svg">
<path d="M45.6933 40.0702H47.8842V38.6455H45.6933L11.5658 51.071L11.145 52.6491L45.6933 40.0702Z" fill="#CB8D00"/>
<path d="M47.8846 43.8856V41.043H45.6937L11.2698 53.569L10.6479 56.6383L45.6937 43.8856H47.8846Z" fill="#CB8D00"/>
<path d="M79.9419 40.0702L114.49 52.6491L114.069 51.071L79.9419 38.6455H77.7527V40.0702H79.9419Z" fill="#CB8D00"/>
<path d="M114.988 56.6383L114.366 53.569L79.9419 41.043H77.7527V43.8856H79.9419L114.988 56.6383Z" fill="#CB8D00"/>
<path d="M77.0574 35.0022V34.0785C77.0574 31.5221 71.0657 29.4447 63.5407 29.322V26.0839C63.8482 25.9512 64.1728 25.8623 64.505 25.8198C65.3994 25.8198 67.0025 26.9037 67.8952 26.9497C68.3399 26.9736 69.5887 26.3839 69.5887 26.3839V21.8711C69.5887 21.8711 68.3416 22.4352 67.8952 22.4352C67.0025 22.4352 65.3977 21.3513 64.505 21.3053C64.0603 21.2831 62.8115 21.8711 62.8115 21.8711V29.3186C54.9748 29.3186 48.6355 31.4557 48.6355 34.0904V35.0158C51.1007 32.6077 56.4655 30.9785 62.8456 30.9785C69.2258 30.9785 74.5906 32.6077 77.0574 35.0022Z" fill="#CB8D00"/>
<path d="M77.0577 42.5206V36.5558C75.4409 33.962 69.5974 31.9766 62.8458 31.9766C56.0943 31.9766 50.2508 33.9705 48.6289 36.5609V42.5257C51.0941 40.5454 56.4572 39.1991 62.839 39.1991C69.2209 39.1991 74.5908 40.542 77.0577 42.5206Z" fill="#CB8D00"/>
<path d="M73.4731 41.7472C72.3258 41.3464 71.149 41.0359 69.9534 40.8184V44.5847L73.4731 45.2903V41.7472Z" fill="#CB8D00"/>
<path d="M55.7433 87.2324H52.2083V88.6827H55.7433V87.2324Z" fill="#CB8D00"/>
<path d="M55.7433 89.3887H52.2083V90.7827H55.7433V89.3887Z" fill="#CB8D00"/>
<path d="M73.4731 89.3887H69.9534V90.7827H73.4731V89.3887Z" fill="#CB8D00"/>
<path d="M73.4731 87.2324H69.9534V88.6827H73.4731V87.2324Z" fill="#CB8D00"/>
<path d="M55.7432 46.8925V45.6348L52.1826 46.3642V57.6104L55.7432 56.8827V52.6647L53.1895 53.1913V47.4174L55.7432 46.8925Z" fill="#CB8D00"/>
<path d="M55.7432 58.953V57.6953L52.1826 58.423V69.6692L55.7432 68.9449V64.727L53.1895 65.2536V59.4796L55.7432 58.953Z" fill="#CB8D00"/>
<path d="M73.4969 46.3637L69.9517 45.6377V46.8937L72.4901 47.4169V53.1908L69.9517 52.6676V56.8856L73.4969 57.6099V46.3637Z" fill="#CB8D00"/>
<path d="M73.4969 58.4225L69.9517 57.6982V58.956L72.4918 59.4792V65.2531L69.9517 64.7299V68.9478L73.4969 69.6687V58.4225Z" fill="#CB8D00"/>
<path d="M64.9243 45.0195H60.6958V56.2674H64.926L64.9243 45.0195ZM64.3212 52.0495H61.2989V46.2773H64.3212V52.0495Z" fill="#CB8D00"/>
<path d="M64.926 64.1117V57.0801H60.6958V68.328H64.926V64.1117ZM64.3229 64.1117H61.2972V58.3412H64.3229V64.1117Z" fill="#CB8D00"/>
<path d="M64.9243 40.2606C64.2428 40.2282 63.5613 40.1992 62.8458 40.1992C62.1303 40.1992 61.396 40.2282 60.6958 40.2623V44.2468H64.9243V40.2606Z" fill="#CB8D00"/>
<path d="M64.9243 87.2324H60.6958V88.6827H64.9243V87.2324Z" fill="#CB8D00"/>
<path d="M55.7433 40.8184C54.5418 41.0357 53.3592 41.3474 52.2065 41.7506V45.2749L55.7416 44.566L55.7433 40.8184Z" fill="#CB8D00"/>
<path d="M64.9243 89.3887H60.6958V90.7827H64.9243V89.3887Z" fill="#CB8D00"/>
<path d="M113.34 60.4325V57.5899L108.384 55.7851V87.2247H105.543V80.5782L107.655 80.735V77.923L105.543 77.7424V74.5486L107.655 74.9219V72.0775L105.543 71.706V66.1673L107.655 66.7348V63.8921L105.543 63.3246V57.595L107.655 58.3636V55.521L102.701 53.7179V87.2247H99.8575V80.0669L101.97 80.2527V77.4169L99.8575 77.2311V73.5704L101.97 73.9436V71.0993L99.8575 70.7278V64.6471L101.97 65.2129V62.3651L99.8575 61.7976V55.5261L101.97 56.2964V53.452L97.0124 51.649V87.2247H94.1742V79.5778L96.2867 79.7619V76.9175L94.1742 76.7318V72.5683L96.2867 72.9399V70.1006L94.1742 69.7274V63.1133L96.2867 63.6808V60.8381L94.1742 60.2723V53.4554L96.2867 54.224V51.3831L91.3308 49.58V87.2247H88.4942V79.0802L90.6067 79.2642V76.4216L88.4942 76.2358V71.5645L90.6067 71.9378V69.0951L88.4942 68.7219V61.588L90.6067 62.1555V59.3129L88.4942 58.7454V51.3882L90.6067 52.1568V49.3091L85.6525 47.506V87.2145H82.804V78.5825L84.9165 78.7666V75.924L82.804 75.7382V70.5625L84.9165 70.9357V68.0913L82.804 67.7147V60.0627L84.9165 60.6285V57.7859L82.804 57.2184V49.3193L84.9165 50.0879V47.2452L79.976 45.449L79.9623 91.4034H79.2127V45.4132H77.7612V91.4034H77.0338L77.0661 43.8777C76.5431 43.2147 75.5448 42.5808 74.1989 42.0252V92.8111H73.4817V91.4767H69.9534V92.8111H69.226V40.7027C68.1152 40.5221 66.9362 40.3738 65.6483 40.292V92.8265H64.9208V91.4835H60.6958V92.8179H59.9683V40.2988C58.7144 40.3806 57.5577 40.5255 56.4707 40.7027V92.8179H55.7433V91.4835H52.2065V92.8179H51.4791V42.032C50.1434 42.5859 49.1519 43.2164 48.634 43.876V91.4835H48.6118V91.4034H47.8827V45.4132H46.4226V91.4034H45.673L45.6526 45.4507L40.712 47.2469V50.0896L42.8365 49.3193V57.2184L40.7256 57.7859V60.6285L42.8365 60.0627V67.7147L40.7256 68.0862V70.9357L42.8365 70.5625V75.7382L40.7256 75.924V78.7666L42.8365 78.5825V87.2247H39.9897V47.5162L35.0355 49.3091V52.1517L37.148 51.3831V58.7402L35.0355 59.3078V62.1504L37.148 61.5829V68.7168L35.0355 69.09V71.9327L37.148 71.5594V76.2358L35.0355 76.4216V79.2642L37.148 79.0802V87.2247H34.3046V49.58L29.3487 51.3831V54.2257L31.4612 53.4571V60.274L29.3487 60.8398V63.6842L31.4612 63.1167V69.7257L29.3504 70.1006V72.9433L31.4629 72.5717V76.7369L29.3504 76.9175V79.7602L31.4629 79.5761V87.223H28.6212V51.649L23.667 53.452V56.2964L25.7778 55.5278V61.7993L23.667 62.3668V65.2095L25.7778 64.6471V70.7329L23.667 71.1044V73.9488L25.7778 73.5755V77.2362L23.667 77.422V80.2646L25.7778 80.0789V87.2366H22.9362V53.7179L17.9819 55.521V58.3636L20.0945 57.595V63.3246L17.9819 63.8921V66.7348L20.0945 66.1673V71.706L17.9819 72.0775V74.9219L20.0945 74.5486V77.7492L17.9819 77.9298V80.7418L20.0945 80.585V87.2315H17.2511V55.7851L12.2969 57.5899V60.4325L14.4094 59.6639V64.8499L12.2969 65.4174V68.2618L14.4094 67.6942V72.7081L12.2969 73.0813V75.924L14.4094 75.5541V78.2366L12.3906 78.407C12.6001 78.9796 12.917 80.1913 13.2884 81.0895L13.3054 81.1082L14.636 80.994V83.8384L14.4094 83.8554V84.2184L17.0535 88.6937V89.8696H17.4146L18.5493 91.4034H20.0468V92.8282H19.3261L20.0928 94.2938V94.3347H105.543V94.3006L106.309 92.835H105.59V91.4034H107.086L108.222 89.8696H108.582V88.6937L111.228 84.2201V83.8571L110.999 83.8401V80.9957L112.332 81.1099L112.349 81.0912C112.72 80.193 113.03 78.9813 113.245 78.4087L111.228 78.2383V75.5541L113.34 75.9257V73.0813L111.228 72.7081V67.6942L113.34 68.2618V65.4174L111.228 64.8499V59.6639L113.34 60.4325ZM25.7727 92.8265H22.9362V91.4034H25.7778L25.7727 92.8265ZM31.4578 92.8265H28.6212V91.4034H31.4629L31.4578 92.8265ZM37.1429 92.8265H34.3046V91.4034H37.148L37.1429 92.8265ZM42.8262 92.8265H39.9897V91.4034H42.8365L42.8262 92.8265ZM85.6423 92.8265H82.804V91.4034H85.6474L85.6423 92.8265ZM91.3257 92.8265H88.4942V91.4034H91.3359L91.3257 92.8265ZM97.0107 92.8265H94.1742V91.4034H97.0124L97.0107 92.8265ZM102.696 92.8265H99.8575V91.4034H102.701L102.696 92.8265Z" fill="#CB8D00"/>
<path d="M21.9922 113.388C22.3632 113.007 22.5689 112.494 22.5646 111.962C22.5646 110.68 19.924 108.383 19.924 108.383C19.6923 108.163 19.4742 107.931 19.2425 107.701L16.745 110.227C16.3855 110.586 15.9136 111.057 15.9136 111.606C15.9214 111.667 15.9333 111.727 15.9494 111.786C16.0618 111.854 20.2528 114.741 21.9922 113.388Z" fill="#003365"/>
<path d="M27.6294 107.718L21.9921 113.388C20.2526 114.734 16.0617 111.854 15.9492 111.779C16.0395 112.341 16.5046 112.858 16.922 113.187C29.0179 124.182 45.2026 131.016 62.7927 131.021C80.3829 131.026 96.576 124.182 108.663 113.187C109.081 112.858 109.546 112.335 109.636 111.779C109.525 111.854 105.333 114.734 103.595 113.388L97.9867 107.711C87.9628 115.616 75.5704 119.915 62.8063 119.915C50.0422 119.915 37.6498 115.616 27.626 107.711" fill="#0057AC"/>
<path d="M106.326 107.721C118.01 96.3539 125.293 80.4961 125.293 62.9426C125.293 28.4575 97.2578 0.405984 62.793 0.397463C28.3282 0.388942 0.292969 28.4575 0.292969 62.9426C0.292969 80.4961 7.57265 96.3454 19.246 107.713C19.4743 107.936 19.6924 108.168 19.9275 108.394C19.9275 108.394 22.5682 110.7 22.5682 111.973C22.5724 112.505 22.3667 113.018 21.9957 113.4L29.9705 105.325C30.1691 105.127 30.3236 104.889 30.4236 104.626C30.5237 104.364 30.5671 104.083 30.551 103.803C30.5349 103.523 30.4596 103.249 30.3302 103C30.2008 102.751 30.0202 102.532 29.8001 102.358C18.6941 92.9199 11.399 78.6419 11.399 62.9426C11.399 34.545 34.4085 11.5244 62.793 11.5141C91.1774 11.5039 114.187 34.5382 114.187 62.9426C114.187 78.6487 106.894 92.9267 95.7977 102.36C95.5775 102.534 95.3966 102.753 95.267 103.002C95.1375 103.251 95.0621 103.524 95.046 103.805C95.0299 104.085 95.0734 104.366 95.1736 104.628C95.2738 104.89 95.4285 105.128 95.6274 105.327L97.9954 107.725L103.486 113.285C103.162 112.923 102.981 112.455 102.975 111.968C102.975 110.686 105.616 108.389 105.616 108.389C105.848 108.169 106.067 107.938 106.297 107.707" fill="#1886F1"/>
<path d="M103.56 113.405C103.188 113.023 102.982 112.511 102.986 111.978C102.986 110.697 105.626 108.391 105.626 108.391C105.858 108.171 106.078 107.939 106.308 107.718L108.809 110.237C109.166 110.596 109.638 111.067 109.638 111.615C109.631 111.676 109.619 111.737 109.603 111.796C109.49 111.873 105.297 114.751 103.56 113.405Z" fill="#003365"/>
<path d="M43.7326 110.74C42.109 110.74 41.5264 109.686 41.5264 107.467V104.485C41.5264 102.27 42.109 101.213 43.7326 101.213C45.1654 101.213 45.9388 102.176 45.9388 104.028V104.485H44.5572V103.762C44.5572 102.837 44.3289 102.38 43.7326 102.38C43.1363 102.38 42.908 102.837 42.908 103.762V108.193C42.908 109.121 43.1363 109.577 43.7326 109.577C44.3289 109.577 44.5572 109.121 44.5572 108.193V107.319H45.9388V107.902C45.9388 109.763 45.1773 110.74 43.7326 110.74Z" fill="#A07000"/>
<path d="M47.385 101.39H51.5964V110.56H50.2335V102.632H48.7377V110.56H47.3748L47.385 101.39Z" fill="#A07000"/>
<path d="M54.2081 104.827C54.4109 104.346 54.818 104.028 55.5148 104.028C56.9476 104.028 57.1248 105.158 57.1248 106.325V108.275C57.1248 109.619 56.7449 110.685 55.198 110.685C53.7005 110.685 53.2967 109.662 53.2967 108.261V106.311C53.2896 105.651 53.3192 104.99 53.3853 104.333C53.4977 103.481 53.726 102.543 54.4875 102.061C55.2491 101.579 56.3258 101.579 56.9987 101.39V102.62C56.428 102.848 55.5915 102.912 55.1469 103.089C54.3104 103.43 54.2218 104.004 54.1826 104.827H54.2081ZM55.8573 108.67V105.906C55.8573 105.372 55.5523 105.093 55.2099 105.093C54.83 105.093 54.5642 105.347 54.5642 105.906V108.684C54.5642 109.355 54.7925 109.623 55.198 109.623C55.6034 109.623 55.8573 109.381 55.8573 108.67Z" fill="#A07000"/>
<path d="M58.8252 101.39H62.6686V102.651H60.183V110.553H58.8201L58.8252 101.39Z" fill="#A07000"/>
<path d="M63.672 109.381C63.8351 109.443 64.0086 109.473 64.1831 109.469C64.5766 109.469 64.8305 109.355 65.0196 109.001C65.1127 108.807 65.1808 108.603 65.2223 108.392L63.3926 101.39H64.7998L65.8782 106.046L66.575 101.39H67.9379L66.575 107.617C66.3603 108.581 66.207 109.406 65.8935 109.952C65.6533 110.371 65.2598 110.739 64.333 110.739C64.1089 110.728 63.8875 110.686 63.6754 110.613L63.672 109.381Z" fill="#A07000"/>
<path d="M68.9721 101.39H73.1836V110.56H71.8206V102.632H70.3248V110.56H68.9619L68.9721 101.39Z" fill="#A07000"/>
<path d="M75.6318 102.557H74.3762V101.39H78.2435V102.557H76.9896V110.567H75.6267L75.6318 102.557Z" fill="#A07000"/>
<path d="M82.937 110.56H79.5637V112.615H78.2434V109.318H78.8397C79.0827 108.852 79.2665 108.357 79.3866 107.845C79.6008 106.977 79.7196 106.089 79.7409 105.195C79.792 103.939 79.8176 102.417 79.8295 101.39H83.5196V109.318H84.2556V112.615H82.937V110.56ZM82.1499 109.318V102.632H81.0476C81.0221 104.701 81.0101 105.778 80.8057 106.985C80.6737 107.779 80.4702 108.56 80.1975 109.318H82.1499Z" fill="#A07000"/>
<path d="M22.4626 99.1011C23.064 99.7658 22.8494 100.395 21.9413 101.216L20.7215 102.32C19.8152 103.142 19.1678 103.294 18.5664 102.629C18.0366 102.043 18.1439 101.369 18.9071 100.683L19.0928 100.512L19.6039 101.078L19.3075 101.346C18.9293 101.686 18.8271 101.951 19.0468 102.198C19.2666 102.445 19.5392 102.368 19.9191 102.027L21.7284 100.388C22.1083 100.047 22.2105 99.7828 21.989 99.5357C21.7676 99.2886 21.4967 99.3653 21.1185 99.7061L20.7607 100.03L20.2496 99.4641L20.4864 99.2494C21.2462 98.5609 21.9277 98.5097 22.4626 99.1011Z" fill="white"/>
<path d="M16.7825 100.418L16.1709 99.6598L19.6276 95.873L20.1063 96.4661L19.3891 97.2075L19.861 97.792L20.7316 97.2415L21.1933 97.8142L16.7825 100.418ZM18.9087 97.6915L16.7944 99.7536L16.8166 99.7808L19.292 98.1618L18.9087 97.6915Z" fill="white"/>
<path d="M15.0768 98.2336L14.6424 97.6235L16.346 96.405L15.8656 95.7233L14.162 96.9435L13.7275 96.3453L17.8453 93.4072L18.2797 94.0156L16.4295 95.3347L16.9082 96.0045L18.7601 94.6837L19.1945 95.2938L15.0768 98.2336Z" fill="white"/>
<path d="M14.3341 93.4051L14.2473 93.2687C14.0769 93.0012 13.8861 93.0727 13.4142 93.3352C13.0734 93.5261 12.8724 93.642 12.7157 93.7067C12.3392 93.8601 12.0342 93.8038 11.8281 93.4783C11.759 93.3713 11.7019 93.257 11.6577 93.1375L12.2387 92.7728C12.2474 92.7976 12.2594 92.8211 12.2744 92.8427C12.363 92.9858 12.5061 93.0284 12.7089 92.9177C12.9576 92.7864 13.0496 92.7217 13.3903 92.5427C13.7311 92.3638 13.9525 92.3331 14.1587 92.5581L14.1774 92.5461C14.099 92.3553 14.0462 92.1661 14.312 91.8917C14.5634 91.6693 14.831 91.4659 15.1127 91.2833C15.4109 91.0737 15.4364 90.9578 15.3393 90.8027C15.3226 90.7718 15.3019 90.7432 15.278 90.7175L15.8606 90.3545C15.962 90.4397 16.0478 90.5417 16.1145 90.6561C16.2092 90.8043 16.2442 90.9828 16.2126 91.1558C16.181 91.3288 16.0851 91.4833 15.9441 91.5884C15.7441 91.7545 15.5354 91.9098 15.3189 92.0536C14.8265 92.3774 14.6067 92.5649 14.8078 92.8853L14.9015 93.0335L16.8164 91.8406L17.2184 92.4814L12.9423 95.1672L12.5419 94.5247L14.3341 93.4051Z" fill="white"/>
<path d="M11.4892 91.5105L11.8299 92.1189L11.2626 92.4257L10.2285 90.551L10.7924 90.2391L11.1332 90.8458L15.0004 88.707L15.3633 89.3632L11.4892 91.5105Z" fill="white"/>
<path d="M12.4433 88.734L11.8027 87.4541L12.3411 87.1865L12.98 88.4647L12.4433 88.734Z" fill="white"/>
<path d="M8.85914 87.7867L7.92725 85.6581L12.5612 83.625L12.8627 84.3067L8.85573 86.0689L9.19646 86.8255L13.1932 85.0668L13.4931 85.7485L8.85914 87.7867Z" fill="white"/>
<path d="M7.40065 84.3577L6.70557 82.483L7.34103 82.2462L7.77716 83.4221L9.1043 82.933L8.76357 82.0127L9.41437 81.7724L9.7551 82.6927L11.2662 82.132L10.7892 80.8453L11.4264 80.6084L12.1623 82.5989L7.40065 84.3577Z" fill="white"/>
<path d="M6.84487 80.8234L7.05953 81.4847L6.44451 81.6772L5.79883 79.6441L6.41384 79.4515L6.61999 80.1128L10.8348 78.792L11.058 79.5061L6.84487 80.8234Z" fill="white"/>
<path d="M5.5265 78.6663L5.02393 76.7286L5.68153 76.5581L5.99671 77.7698L7.35963 77.4188L7.1143 76.4695L7.78383 76.2991L8.03086 77.2483L9.5897 76.8444L9.24897 75.5151L9.90658 75.3447L10.4398 77.3983L5.5265 78.6663Z" fill="white"/>
<path d="M4.78044 75.6495L4.59815 74.7378C4.37497 73.6266 4.60667 73.1801 5.72426 72.9551C6.76689 72.7438 7.27117 73.0506 7.46369 74.0118L7.52842 74.3339L9.59495 73.9197L9.74146 74.6543L4.78044 75.6495ZM6.84356 74.2214C6.73282 73.6726 6.47216 73.5823 5.84011 73.7101C5.30516 73.8175 5.11436 74.0339 5.20976 74.5145L5.26598 74.7889L6.88956 74.4617L6.84356 74.2214Z" fill="white"/>
<path d="M4.12941 72.1592L3.82275 69.954L4.47525 69.8653L4.67458 71.3293L6.0375 71.1418L5.98298 70.7481C5.88757 70.0409 6.2709 69.3848 7.3459 69.2365C8.4209 69.0882 8.87918 69.5995 8.99503 70.4022L9.13984 71.4775L4.12941 72.1592ZM8.38853 70.8248L8.34423 70.4993C8.30164 70.1789 8.08869 69.9114 7.46515 69.9966C6.78369 70.0886 6.61333 70.3885 6.65251 70.7209L6.69681 71.0617L8.38853 70.8248Z" fill="white"/>
<path d="M8.10577 68.5377C8.13173 68.4464 8.1404 68.351 8.13133 68.2565C8.13379 68.1615 8.10677 68.068 8.054 67.989C8.00122 67.91 7.92528 67.8492 7.8366 67.8151C7.72662 67.7742 7.61228 67.7462 7.49587 67.7316L3.7274 69.0455L3.66436 68.2718L6.17724 67.4725L3.58599 67.3021L3.52637 66.5557L7.01033 67.026C7.55038 67.101 8.00866 67.1487 8.32384 67.3004C8.56405 67.4129 8.78382 67.6123 8.82471 68.1218C8.82986 68.2464 8.81666 68.371 8.78553 68.4917L8.10577 68.5377Z" fill="white"/>
<path d="M3.47199 65.6367L3.44813 64.7045C3.41917 63.5695 3.72413 63.1707 4.86557 63.14C5.92864 63.1127 6.3733 63.4996 6.39885 64.4812L6.40737 64.8102L8.51478 64.7556L8.53522 65.5038L3.47199 65.6367ZM5.74976 64.5818C5.73613 64.0211 5.49421 63.8882 4.85024 63.9001C4.30337 63.9137 4.07678 64.0944 4.09041 64.5818V64.8613L5.74976 64.8187V64.5818Z" fill="white"/>
<path d="M3.4209 62.1286L3.48223 60.0068L4.18243 60.0273L4.14324 61.3992L8.50629 61.5219L8.48414 62.2718L3.4209 62.1286Z" fill="white"/>
<path d="M8.77556 58.3755C8.70231 59.2685 8.0941 59.5411 6.876 59.4406L5.23709 59.306C4.01728 59.2037 3.46529 58.8356 3.53344 57.9426C3.59818 57.1552 4.16379 56.7735 5.18087 56.857L5.43301 56.8774L5.36997 57.6375L4.97302 57.6051C4.46193 57.5625 4.20127 57.6682 4.17401 57.9954C4.14675 58.3226 4.38867 58.4692 4.89806 58.5067L7.33087 58.7078C7.84196 58.7504 8.10092 58.6447 8.12818 58.3175C8.15544 57.9903 7.91522 57.8437 7.40583 57.8062L6.9254 57.767L6.98844 57.0053L7.30872 57.0325C8.33773 57.1177 8.8403 57.5796 8.77556 58.3755Z" fill="white"/>
<path d="M6.07171 55.1169L6.09556 54.9584C6.13985 54.6466 5.94564 54.575 5.4141 54.471C5.02907 54.3943 4.80079 54.3551 4.63894 54.3006C4.25392 54.1745 4.05459 53.9342 4.10911 53.5525C4.12447 53.4284 4.1542 53.3066 4.1977 53.1895L4.87915 53.2883C4.8708 53.3126 4.86509 53.3378 4.86212 53.3633C4.83827 53.5337 4.91834 53.6547 5.14663 53.7041C5.41921 53.7655 5.53165 53.774 5.91497 53.8643C6.29829 53.9547 6.48058 54.0671 6.49251 54.3756H6.51295C6.57769 54.1796 6.65947 54.0007 7.03938 53.9632C7.37529 53.9545 7.71138 53.9721 8.04453 54.016C8.40741 54.0467 8.50281 53.9751 8.52837 53.7962C8.53174 53.761 8.53174 53.7256 8.52837 53.6905L9.20982 53.7893C9.23281 53.9201 9.23281 54.0539 9.20982 54.1847C9.18649 54.3589 9.09822 54.5179 8.96269 54.6298C8.82716 54.7416 8.65438 54.7982 8.47896 54.788C8.21928 54.7863 7.9599 54.7698 7.7021 54.7386C7.11775 54.6687 6.82642 54.6687 6.77361 55.0437L6.74805 55.2141L8.98665 55.5362L8.87932 56.2843L3.86719 55.5634L3.97622 54.8136L6.07171 55.1169Z" fill="white"/>
<path d="M4.40918 52.0595L4.56251 51.3182L7.10776 51.8465L7.59159 51.9675L7.28323 51.797L5.01568 50.4541L4.74821 50.3996L4.89813 49.6719L9.85915 50.6944L9.70752 51.4221L7.1282 50.8887L6.64607 50.7592L6.96635 50.9415L9.22369 52.281L9.51842 52.3424L9.36509 53.0837L4.40918 52.0595Z" fill="white"/>
<path d="M4.61847 45.7695C5.17046 45.9229 5.42771 46.2808 5.2403 46.9625C5.0529 47.6442 4.64744 47.8146 4.09375 47.6629L4.26411 47.0426C4.53499 47.1159 4.75477 47.0835 4.8195 46.8466C4.88424 46.6097 4.71388 46.4683 4.4447 46.3933L4.61847 45.7695ZM5.25223 48.256L5.45326 47.5266L7.95762 48.2219L8.43124 48.3736L8.1348 48.1827L5.96776 46.6949L5.69688 46.6233L5.89621 45.9076L10.7806 47.2641L10.5829 47.9799L8.04621 47.2641L7.57089 47.1125L7.87755 47.3136L10.0429 48.7979L10.3325 48.878L10.1264 49.6092L5.25223 48.256Z" fill="white"/>
<path d="M6.91846 42.8565L7.66806 40.8711L8.32397 41.1182L7.83843 42.4032L11.9272 43.9455L11.6597 44.646L6.91846 42.8565Z" fill="white"/>
<path d="M8.40439 38.9285C8.76386 38.1156 9.42658 38.0508 10.5476 38.5468L12.0519 39.2148C13.1712 39.7125 13.5716 40.2374 13.207 41.0605C12.8424 41.8836 12.1848 41.9382 11.0638 41.4422L9.55946 40.7742C8.44017 40.2766 8.03981 39.7465 8.40439 38.9285ZM11.7384 40.9054C12.2052 41.1133 12.4863 41.0997 12.6192 40.7998C12.7521 40.4998 12.5732 40.2885 12.1081 40.0738L9.87464 39.0836C9.40784 38.8757 9.12674 38.8893 8.99215 39.1893C8.85756 39.4892 9.03815 39.7005 9.50324 39.9153L11.7384 40.9054Z" fill="white"/>
<path d="M14.6956 37.9773C14.2816 38.7732 13.6172 38.7902 12.5303 38.2244L11.0703 37.4643C9.98334 36.8985 9.61535 36.343 10.0293 35.5488C10.3939 34.8467 11.0634 34.712 11.9715 35.1841L12.1947 35.3017L11.8437 35.9834L11.4894 35.7942C11.0362 35.559 10.7551 35.5539 10.6035 35.8453C10.4518 36.1368 10.6171 36.3668 11.0703 36.602L13.239 37.7319C13.6922 37.9671 13.9733 37.9722 14.1266 37.6791C14.2799 37.3859 14.113 37.1678 13.6581 36.9241L13.2288 36.6974L13.5814 36.0158L13.8677 36.164C14.7808 36.6463 15.067 37.2684 14.6956 37.9773Z" fill="white"/>
<path d="M14.8966 36.0161C14.9705 35.9563 15.0328 35.8836 15.0806 35.8014C15.1375 35.7253 15.1693 35.6335 15.1718 35.5386C15.1742 35.4436 15.1471 35.3502 15.0942 35.2714C15.0311 35.1693 14.9549 35.0759 14.8676 34.9936L11.0327 33.8875L11.428 33.2195L13.9408 34.0188L11.9288 32.3776L12.3104 31.7334L14.883 34.1415C15.2799 34.5147 15.6275 34.8232 15.7978 35.1231C15.9273 35.3566 15.992 35.6463 15.7314 36.086C15.6628 36.188 15.5796 36.2793 15.4843 36.357L14.8966 36.0161Z" fill="white"/>
<path d="M18.1169 32.1266L17.0777 33.6757L18.0215 34.3097L17.6228 34.9147L16.11 33.8922L16.294 33.6195C16.1532 33.3647 15.9816 33.1283 15.7829 32.9157C15.4509 32.5493 15.0795 32.2207 14.6755 31.9357C14.115 31.525 13.425 31.0444 12.9565 30.7223L14.0895 29.0283L17.7268 31.4705L17.9533 31.1296L19.4662 32.1522L19.0607 32.7572L18.1169 32.1266ZM17.3042 32.1044L14.2377 30.0509L13.897 30.5621C14.8391 31.2097 15.3297 31.5489 15.8204 32.0124C16.1443 32.3184 16.4397 32.6532 16.7029 33.0128L17.3042 32.1044Z" fill="white"/>
<path d="M15.2578 27.4485L15.8473 26.6748L20.3483 29.1272L19.8849 29.7339L18.9956 29.2226L18.5407 29.8191L19.2818 30.5349L18.8355 31.1194L15.2578 27.4485ZM18.4147 28.863L15.9069 27.302L15.8865 27.3292L18.045 29.347L18.4147 28.863Z" fill="white"/>
<path d="M16.9736 25.2635L17.5801 24.5563C18.3178 23.7042 18.8119 23.6036 19.679 24.3467C20.4866 25.0386 20.5564 25.6248 19.9175 26.3679L19.7046 26.6184L21.3043 27.9818L20.8171 28.5493L16.9736 25.2635ZM19.369 26.0083C19.7335 25.5839 19.645 25.3266 19.1543 24.9023C18.7403 24.5478 18.4507 24.529 18.1321 24.9023L17.9498 25.1085L19.2105 26.1872L19.369 26.0083Z" fill="white"/>
<path d="M23.8116 25.3725C23.1881 26.0184 22.5475 25.8446 21.6667 24.9942L20.4827 23.8506C19.6019 22.9985 19.4077 22.3628 20.0312 21.7186C20.5815 21.1494 21.2595 21.2074 21.9938 21.9231L22.1761 22.0936L21.6463 22.6423L21.3583 22.3645C20.9921 22.0083 20.7229 21.9248 20.4946 22.1617C20.2663 22.3986 20.3583 22.673 20.7263 23.0138L22.4827 24.7181C22.8507 25.0725 23.1199 25.1578 23.3482 24.9209C23.5765 24.684 23.4828 24.4096 23.1148 24.0688L22.7741 23.7279L23.3056 23.1792L23.5356 23.4041C24.2665 24.1233 24.3653 24.7999 23.8116 25.3725Z" fill="white"/>
<path d="M22.4524 20.3707L21.9413 20.8428L21.5034 20.3707L23.0691 18.917L23.5069 19.3891L22.9958 19.8611L26.0028 23.0992L25.4542 23.6104L22.4524 20.3707Z" fill="white"/>
<path d="M23.8325 18.2472L24.5515 17.6457C25.3573 16.9725 25.8445 16.964 26.4953 17.736C26.8769 18.1927 26.9945 18.5404 26.8122 18.9017C27.2279 18.7653 27.5993 18.9477 28.0048 19.4419C28.6675 20.2378 28.6147 20.8394 27.8139 21.5074L27.0677 22.1312L23.8325 18.2472ZM25.9331 19.2459C26.3079 18.9323 26.2875 18.6767 25.9331 18.2575C25.5788 17.8382 25.3539 17.8024 24.9944 18.1024L24.8104 18.2558L25.7576 19.3891L25.9331 19.2459ZM27.4357 20.9808C27.8276 20.6536 27.7935 20.3724 27.3897 19.8884C27.0269 19.4538 26.773 19.4112 26.3914 19.7299L26.187 19.9003L27.2313 21.1512L27.4357 20.9808Z" fill="white"/>
<path d="M26.6519 15.9498L28.2601 14.7568L28.6639 15.3022L27.6587 16.0503L28.4935 17.1751L29.2772 16.5872L29.6912 17.1445L28.9041 17.729L29.8632 19.0225L30.9655 18.2045L31.371 18.7498L29.6673 20.0161L26.6519 15.9498Z" fill="white"/>
<path d="M29.1836 14.1161L29.8088 13.7053L30.9605 15.4607L31.6505 15.0074L30.4988 13.252L31.1258 12.8379L33.901 17.0678L33.2741 17.4785L32.027 15.5766L31.337 16.0299L32.5841 17.9318L31.9588 18.3425L29.1836 14.1161Z" fill="white"/>
<path d="M32.3213 12.104L32.9738 11.7342L34.0113 13.5611L34.7302 13.1538L33.6927 11.3269L34.3435 10.9639L36.8445 15.3676L36.192 15.7357L35.0676 13.7571L34.3503 14.1644L35.4747 16.1447L34.8291 16.5077L32.3213 12.104Z" fill="white"/>
<path d="M35.6201 10.2601L36.3016 9.93968L37.1534 11.7359L37.4941 11.5655C38.2216 11.2247 38.857 11.4394 39.3392 12.4568C39.7958 13.4197 39.4874 14.0247 38.8281 14.3315L37.8059 14.8189L35.6201 10.2601ZM38.1892 13.919L38.4737 13.7844C38.6901 13.6822 38.9593 13.4674 38.6288 12.7721C38.2983 12.0768 37.966 12.0785 37.719 12.1961L37.4345 12.3307L38.1892 13.919ZM40.1927 13.6907L38.0189 9.11995L38.7003 8.79785L40.8759 13.3737L40.1927 13.6907Z" fill="white"/>
<path d="M41.661 6.24609C41.8689 6.78122 41.7309 7.20216 41.0784 7.45609C40.4259 7.71002 40.0409 7.49018 39.833 6.95505L40.4344 6.72157C40.5349 6.98402 40.6933 7.13911 40.9216 7.05049C41.1499 6.96187 41.1619 6.74032 41.0596 6.47957L41.661 6.24609ZM40.046 8.23663L40.7513 7.96395L41.69 10.384L41.8501 10.856L41.8263 10.505L41.7241 7.87874L41.6252 7.62481L42.3254 7.35725L44.1552 12.0763L43.4635 12.3438L42.4958 9.88973L42.3425 9.41766L42.3646 9.78407L42.4651 12.4018L42.5742 12.683L41.8689 12.9573L40.046 8.23663Z" fill="white"/>
<path d="M46.317 10.6636C46.4123 10.6697 46.508 10.6593 46.5998 10.6329C46.6936 10.6164 46.7799 10.5711 46.8467 10.5033C46.9136 10.4355 46.9577 10.3486 46.9729 10.2546C46.9921 10.1374 46.9972 10.0184 46.9882 9.90008L44.9438 6.46095L45.6918 6.24622L46.9763 8.55374L46.6356 5.97354L47.3562 5.76562L47.5879 9.28144C47.622 9.8268 47.6663 10.2886 47.5879 10.6261C47.5249 10.8851 47.3715 11.1373 46.8809 11.2822C46.76 11.3116 46.6354 11.323 46.5112 11.3163L46.317 10.6636Z" fill="white"/>
<path d="M48.2712 5.53785L49.0021 5.36742L49.4655 7.41249L50.273 7.23014L49.8079 5.18507L50.5388 5.01465L51.6581 9.9569L50.9272 10.1273L50.4247 7.91183L49.6171 8.09419L50.1282 10.3097L49.3956 10.4801L48.2712 5.53785Z" fill="white"/>
<path d="M51.9324 4.74846L52.6786 4.62916L53.0909 7.19572L53.1488 7.68995L53.1999 7.3491L53.6479 4.75698L53.6054 4.48771L54.3396 4.37012L55.142 9.37202L54.4078 9.48961L53.9904 6.87363L53.9393 6.3794L53.8848 6.7424L53.435 9.32771L53.4827 9.62425L52.7348 9.74525L51.9324 4.74846Z" fill="white"/>
<path d="M55.74 4.18877L56.6753 4.10015C57.7213 4.0013 58.1319 4.27057 58.2273 5.27607C58.2835 5.86914 58.1847 6.22362 57.8304 6.4196C58.2495 6.54231 58.4522 6.9019 58.5118 7.54439C58.6089 8.57545 58.2239 9.0424 57.1847 9.13955L56.2153 9.23157L55.74 4.18877ZM56.9087 6.20316C57.3976 6.15715 57.5237 5.9339 57.4726 5.39025C57.4215 4.8466 57.2511 4.6864 56.7911 4.73071L56.5526 4.75287L56.6923 6.22532L56.9087 6.20316ZM57.1676 8.48853C57.6787 8.43911 57.8082 8.18688 57.7486 7.55973C57.6941 6.99563 57.5084 6.81498 57.0126 6.8627L56.7486 6.88826L56.9019 8.51239L57.1676 8.48853Z" fill="white"/>
<path d="M59.3618 3.88917L61.3568 3.80566L61.3823 4.48735L60.1285 4.53507L60.183 5.93595L61.1626 5.89845L61.1898 6.59037L60.2085 6.62786L60.2699 8.24006L61.643 8.18723L61.6686 8.86892L59.5475 8.94902L59.3618 3.88917Z" fill="white"/>
<path d="M62.4812 3.80566L63.4131 3.821C64.5477 3.83804 64.9344 4.16185 64.9157 5.30197C64.8987 6.36541 64.4932 6.79317 63.5119 6.77783H63.1831L63.149 8.88596L62.3994 8.87403L62.4812 3.80566ZM63.4386 6.12512C63.9991 6.12512 64.1422 5.89845 64.1525 5.25426C64.161 4.7072 63.9906 4.47372 63.5 4.4669H63.2206L63.1933 6.12682L63.4386 6.12512Z" fill="white"/>
<path d="M66.7658 9.14021C65.8714 9.07205 65.5954 8.46705 65.6874 7.24341L65.8135 5.60054C65.9072 4.37861 66.2735 3.82133 67.1679 3.89631C67.9584 3.95596 68.3434 4.52006 68.2651 5.54089L68.2463 5.79141L67.4848 5.73347L67.5155 5.33468C67.5529 4.82341 67.4473 4.56437 67.1185 4.5388C66.7897 4.51324 66.6449 4.75524 66.6074 5.26651L66.4217 7.70526C66.3825 8.21652 66.4899 8.47727 66.817 8.50113C67.1441 8.52499 67.2906 8.28469 67.3281 7.77513L67.3655 7.29283L68.1271 7.35078L68.1032 7.67288C68.0231 8.69541 67.5632 9.19986 66.7658 9.14021Z" fill="white"/>
<path d="M69.5291 4.21289L70.2787 4.31685L69.9243 6.88853L69.834 7.38446L69.984 7.06577L71.1765 4.72075L71.214 4.45148L71.9483 4.55203L71.2566 9.56586L70.5223 9.46361L70.8818 6.85615L70.9772 6.36874L70.8187 6.69936L69.6347 9.03755L69.5836 9.32898L68.8357 9.22502L69.5291 4.21289Z" fill="white"/>
<path d="M73.5108 5.48077L72.8293 5.34784L72.9537 4.71387L75.0508 5.12629L74.9265 5.75856L74.245 5.62563L73.3932 9.96459L72.6572 9.81973L73.5108 5.48077Z" fill="white"/>
<path d="M76.0301 5.35645L77.9722 5.83874L77.8019 6.49828L76.594 6.19152L76.2532 7.5549L77.2022 7.79178L77.0318 8.46325L76.0795 8.22807L75.6927 9.79084L77.0233 10.1215L76.8529 10.7793L74.7949 10.268L76.0301 5.35645Z" fill="white"/>
<path d="M79.269 6.88932L78.6131 6.68651L78.8005 6.07129L80.8448 6.69333L80.6574 7.30856L79.9947 7.10746L78.7085 11.3305L77.9929 11.1124L79.269 6.88932Z" fill="white"/>
<path d="M83.5283 7.63574L85.6834 8.50319L83.794 13.2017L83.0989 12.9205L84.7327 8.86108L83.9661 8.55262L82.3323 12.6138L81.6372 12.3275L83.5283 7.63574Z" fill="white"/>
<path d="M86.9607 9.06348L87.8125 9.46227C88.8347 9.95138 89.0562 10.403 88.5655 11.4358C88.1072 12.3969 87.5604 12.6185 86.6745 12.1975L86.378 12.0561L85.4615 13.9597L84.78 13.6376L86.9607 9.06348ZM86.8704 11.5721C87.3815 11.8124 87.6047 11.6573 87.8824 11.0762C88.1158 10.5819 88.0527 10.2973 87.6149 10.0877L87.361 9.96672L86.6472 11.475L86.8704 11.5721Z" fill="white"/>
<path d="M91.1909 11.0912C91.9678 11.5224 91.9763 12.1905 91.3834 13.2641L90.5861 14.7127C89.9932 15.7864 89.431 16.1392 88.6457 15.7046C87.8603 15.27 87.8603 14.6071 88.4531 13.5334L89.2487 12.0916C89.8416 11.0111 90.4055 10.6584 91.1909 11.0912ZM88.9285 14.2441C88.6814 14.6923 88.6695 14.9735 88.9574 15.132C89.2453 15.2905 89.4787 15.132 89.7241 14.6837L90.9081 12.5449C91.1551 12.0967 91.1653 11.8155 90.8774 11.6553C90.5895 11.4951 90.3663 11.6553 90.1108 12.1036L88.9285 14.2441Z" fill="white"/>
<path d="M93.3974 12.4668L94.2066 12.9934L93.1282 15.5088C92.9582 15.8931 92.7677 16.268 92.5575 16.6319C92.7998 16.2909 93.0639 15.9659 93.348 15.6588L95.2476 13.6683L96.0295 14.1795L93.2747 18.4299L92.7466 18.089C92.9766 17.7209 93.2049 17.3682 93.4281 17.0324C94.1266 15.9576 94.7677 15.0373 95.3515 14.2716L92.106 17.6698L91.7943 17.467L93.6291 13.1553C92.9272 14.3278 92.106 15.6332 91.1775 17.075L90.6477 16.7342L93.3974 12.4668Z" fill="white"/>
<path d="M97.2508 15.0332L97.8454 15.4899L96.6307 17.068L96.9322 17.2998C97.5694 17.7906 97.6614 18.4536 96.9731 19.3449C96.324 20.197 95.6443 20.1868 95.0599 19.7386L94.1604 19.0467L97.2508 15.0332ZM95.157 18.9853L95.4058 19.1779C95.5949 19.3227 95.9169 19.4676 96.3786 18.8558C96.8402 18.244 96.6954 17.9491 96.4808 17.7821L96.2303 17.5912L95.157 18.9853ZM96.2661 20.6691L99.3548 16.6539L99.9494 17.1107L96.859 21.1275L96.2661 20.6691Z" fill="white"/>
<path d="M101.12 18.0908L101.677 18.6021L98.7163 21.8282L99.2632 22.3309L102.224 19.1048L102.781 19.6161L99.8202 22.8422L100.367 23.3535L103.328 20.1274L103.885 20.6386L100.459 24.3709L97.6941 21.8214L101.12 18.0908Z" fill="white"/>
<path d="M105.5 23.3187L105.036 22.8228C104.478 23.334 103.926 23.8197 103.416 24.2594C103.086 24.5628 102.731 24.8392 102.357 25.086C101.973 25.3007 101.44 25.4166 101.062 25.011C100.932 24.8729 100.937 24.8678 100.915 24.8235L101.416 24.3549C101.43 24.3797 101.446 24.4031 101.464 24.4247C101.612 24.5849 101.784 24.6054 102.052 24.4503C102.222 24.3532 102.488 24.1384 103.285 23.4618C103.825 22.9949 104.527 22.3592 105.077 21.8633L106.517 23.3971L102.817 26.8533L102.305 26.3011L105.5 23.3187Z" fill="white"/>
<path d="M107.434 24.4443L108.716 25.9781L108.193 26.4144L107.391 25.4498L106.314 26.3463L106.943 27.1012L106.41 27.546L105.781 26.7911L104.543 27.8357L105.422 28.8924L104.899 29.3269L103.536 27.696L107.434 24.4443Z" fill="white"/>
<path d="M109.402 26.8691L109.846 27.4707L108.16 28.7199L108.65 29.3829L110.337 28.1337L110.782 28.737L106.723 31.7552L106.279 31.1519L108.105 29.8004L107.614 29.1358L105.786 30.4889L105.335 29.8805L109.402 26.8691Z" fill="white"/>
<path d="M111.591 29.8887L111.998 30.5175L110.235 31.6611L110.684 32.3547L112.448 31.2112L112.856 31.84L108.608 34.5957L108.199 33.9703L110.109 32.7313L109.659 32.0377L107.746 33.2733L107.338 32.6444L111.591 29.8887Z" fill="white"/>
<path d="M113.609 33.0771L113.969 33.735L112.224 34.6893L112.407 35.0217C112.793 35.7289 112.609 36.3714 111.621 36.9134C110.686 37.4246 110.066 37.1485 109.711 36.5026L109.168 35.504L113.609 33.0771ZM110.105 35.8448L110.257 36.1209C110.371 36.3305 110.597 36.5879 111.279 36.218C111.96 35.8482 111.933 35.5176 111.802 35.2773L111.65 35.0012L110.105 35.8448ZM110.446 37.8319L114.887 35.4017L115.247 36.0595L110.803 38.4898L110.446 37.8319Z" fill="white"/>
<path d="M113.855 38.7423L115.729 37.0518L116.032 37.7062L114.517 38.8991L116.407 38.5089L116.717 39.1769L114.209 39.5178L112.146 41.3652L111.848 40.7244L113.58 39.3474L111.41 39.7819L111.103 39.1224L113.855 38.7423Z" fill="white"/>
<path d="M117.286 42.3215L117.044 41.6705L117.647 41.4473L118.39 43.4514L117.785 43.6747L117.545 43.0237L113.402 44.5575L113.143 43.8553L117.286 42.3215Z" fill="white"/>
<path d="M118.71 44.4121L119.308 46.3226L118.661 46.5271L118.286 45.3341L116.945 45.7499L117.238 46.6855L116.577 46.8935L116.284 45.9578L114.751 46.4401L115.16 47.749L114.512 47.9518L113.878 45.9272L118.71 44.4121Z" fill="white"/>
<path d="M117.41 48.5044L119.562 47.1904L119.732 47.8892L118.029 48.789L119.955 48.7532L120.138 49.4656L117.61 49.336L115.242 50.771L115.071 50.0893L117.029 49.0566L114.814 49.0838L114.633 48.3783L117.41 48.5044Z" fill="white"/>
<path d="M120.367 50.4883L120.511 51.2245L118.447 51.625L118.606 52.4379L120.667 52.0357L120.81 52.7719L115.841 53.7399L115.698 53.0037L117.931 52.5691L117.775 51.7579L115.539 52.1925L115.398 51.4563L120.367 50.4883Z" fill="white"/>
<path d="M121.279 55.2733C121.393 56.1561 120.859 56.5566 119.642 56.7134L118.01 56.9247C116.795 57.0832 116.179 56.8378 116.063 55.9482C115.947 55.0586 116.484 54.6649 117.698 54.5081L119.33 54.2968C120.545 54.1451 121.163 54.3905 121.279 55.2733ZM117.4 55.3159C116.889 55.3824 116.659 55.5392 116.702 55.8664C116.744 56.1936 117.01 56.2856 117.516 56.2192L119.94 55.9056C120.451 55.8391 120.681 55.6823 120.64 55.3551C120.6 55.0279 120.33 54.9359 119.824 55.0023L117.4 55.3159Z" fill="white"/>
<path d="M120.884 59.4423L120.838 58.7606C120.083 58.8032 119.349 58.8322 118.676 58.8475C118.228 58.8742 117.779 58.8639 117.334 58.8168C116.901 58.7401 116.414 58.493 116.376 57.9409C116.361 57.8621 116.361 57.781 116.376 57.7023L117.058 57.6562C117.055 57.6846 117.055 57.7131 117.058 57.7415C117.071 57.9579 117.192 58.0823 117.497 58.1334C117.688 58.1624 118.032 58.1675 119.076 58.1471C119.792 58.1283 120.736 58.0789 121.477 58.0431L121.617 60.1478L116.565 60.4887L116.516 59.7337L120.884 59.4423Z" fill="white"/>
<path d="M121.768 62.6569C121.784 63.5465 121.208 63.8839 119.983 63.9044L118.337 63.9316C117.112 63.9504 116.524 63.6385 116.511 62.7387C116.497 61.8389 117.073 61.5116 118.298 61.4912L119.944 61.4656C121.168 61.4469 121.755 61.7605 121.768 62.6569ZM117.911 62.2615C117.4 62.27 117.15 62.3995 117.155 62.7285C117.16 63.0574 117.415 63.1801 117.926 63.1716L120.369 63.1324C120.881 63.1324 121.129 62.9943 121.124 62.6654C121.119 62.3365 120.865 62.2138 120.354 62.2223L117.911 62.2615Z" fill="white"/>
<path d="M121.63 65.2739L121.519 67.3923L120.821 67.3548L120.892 65.9914L116.54 65.7648L116.579 65.0166L121.63 65.2739Z" fill="white"/>
<path d="M121.439 68.3959L121.354 69.1475L118.773 68.8612L118.281 68.7845L118.603 68.9259L120.979 70.0507L121.252 70.0814L121.17 70.8176L116.137 70.2603L116.219 69.5207L118.836 69.8121L119.328 69.8956L118.988 69.7456L116.616 68.6226L116.318 68.5885L116.402 67.8369L121.439 68.3959Z" fill="white"/>
<path d="M120.959 72.2258L120.826 72.9705L118.271 72.5104L117.787 72.4013L118.099 72.5717L120.392 73.8499L120.659 73.8976L120.53 74.6288L115.548 73.734L115.68 73.0029L118.269 73.4682L118.755 73.5841L118.429 73.4136L116.141 72.1355L115.845 72.0826L115.979 71.3379L120.959 72.2258ZM121.819 74.6424C121.256 74.5401 120.968 74.2044 121.09 73.5159C121.213 72.8274 121.601 72.6109 122.165 72.7115L122.056 73.3387C121.78 73.2892 121.564 73.3387 121.521 73.5841C121.479 73.8295 121.661 73.9505 121.937 73.9999L121.819 74.6424Z" fill="white"/>
<path d="M119.812 77.8038L119.606 78.5315L117.103 77.8276L116.63 77.6726L116.925 77.8651L119.09 79.3632L119.352 79.4364L119.16 80.1556L114.281 78.7837L114.482 78.0679L117.02 78.782L117.49 78.9439L117.184 78.7394L115.027 77.2448L114.735 77.163L114.942 76.4336L119.812 77.8038Z" fill="white"/>
<path d="M112.632 83.373L113.313 81.6381L112.257 81.2256L112.521 80.5439L114.225 81.2069L114.104 81.5137C114.295 81.7319 114.512 81.9254 114.751 82.0897C115.154 82.3742 115.587 82.6137 116.042 82.8038C116.679 83.0815 117.456 83.4002 117.983 83.6133L117.243 85.5118L113.165 83.92L113.017 84.3001L111.313 83.6371L111.577 82.9554L112.632 83.373ZM113.429 83.2179L116.865 84.5591L117.087 83.9916C116.029 83.5638 115.477 83.3406 114.899 82.9946C114.517 82.7672 114.155 82.5059 113.819 82.2141L113.429 83.2179Z" fill="white"/>
<path d="M116.642 86.8903L116.322 87.5719L113.969 86.4693L113.538 86.2444L113.797 86.4812L115.686 88.3082L115.933 88.4241L115.618 89.1058L111.033 86.9601L111.349 86.287L113.734 87.4032L114.173 87.6384L113.904 87.3896L112.005 85.5576L111.732 85.4297L112.052 84.748L116.642 86.8903Z" fill="white"/>
<path d="M111.437 89.0651C110.974 88.8334 110.691 88.7669 110.505 89.1043C110.319 89.4418 110.531 89.7025 110.997 89.9564C111.575 90.2717 111.813 90.3774 112.142 89.7741L112.28 89.5236L112.856 89.8406L112.718 90.0911C112.51 90.4728 112.475 90.6688 113.204 91.0744C113.584 91.284 113.841 91.2806 113.999 90.9909C114.17 90.6722 114.042 90.5188 113.568 90.2615L113.938 89.5798C114.596 89.9394 114.984 90.5273 114.555 91.313C114.188 91.9845 113.703 92.2077 112.851 91.7408C112.113 91.3369 111.98 91.0096 112.1 90.6023H112.088C111.67 91.1136 111.204 90.9432 110.645 90.6432C109.723 90.132 109.536 89.5338 109.963 88.7413C110.391 87.9489 111.173 88.046 111.8 88.3886L111.437 89.0651Z" fill="white"/>
<path d="M112.999 93.8264L112.488 94.653L107.771 92.6301L108.176 91.9808L109.112 92.4153L109.507 91.7797L108.703 91.1355L109.093 90.5117L112.999 93.8264ZM109.72 92.7119L112.366 94.0344L112.383 94.0037L110.042 92.1955L109.72 92.7119Z" fill="white"/>
<path d="M111.493 96.1752L111.056 96.7921L108.938 95.2805L108.543 94.9822L108.756 95.2617L110.289 97.3971L110.512 97.5539L110.083 98.1589L105.955 95.231L106.384 94.626L108.531 96.1496L108.921 96.4581L108.699 96.165L107.166 94.0347L106.921 93.8642L107.357 93.249L111.493 96.1752ZM111.245 98.7315C110.776 98.3992 110.659 97.9731 111.064 97.4022C111.47 96.8313 111.916 96.8006 112.378 97.133L112.004 97.6476C111.774 97.4772 111.558 97.4414 111.415 97.6476C111.272 97.8538 111.386 98.0396 111.614 98.2015L111.245 98.7315Z" fill="white"/>
<path d="M109.214 99.3041L108.742 99.8869L107.108 98.5611L106.597 99.2035L108.229 100.528L107.745 101.117L103.812 97.9237L104.285 97.3408L106.052 98.7775L106.573 98.135L104.805 96.7L105.278 96.1172L109.214 99.3041Z" fill="white"/>
<path d="M106.539 102.48L105.883 103.2L101.624 100.357L102.135 99.7945L102.977 100.389L103.488 99.8371L102.807 99.0583L103.302 98.5146L106.539 102.48ZM103.517 100.792L105.871 102.572L105.895 102.545L103.921 100.343L103.517 100.792Z" fill="white"/>
<path d="M29.8138 113.268L29.238 112.876L29.5974 112.343L31.3675 113.536L31.0081 114.069L30.4339 113.682L27.9688 117.345L27.3486 116.927L29.8138 113.268Z" fill="white"/>
<path d="M31.9825 113.923L32.785 114.41C33.756 114.997 33.9281 115.469 33.3386 116.455C32.7884 117.365 32.221 117.531 31.3829 117.025L31.1017 116.854L30.0114 118.659L29.3691 118.272L31.9825 113.923ZM31.6418 116.411C32.1222 116.701 32.3642 116.57 32.6981 116.017C32.9809 115.549 32.9502 115.261 32.5277 115.007L32.2875 114.862L31.4357 116.285L31.6418 116.411Z" fill="white"/>
<path d="M35.0202 115.7L35.8721 116.162L34.165 120.99L33.4938 120.629L33.8669 119.669L33.2058 119.315L32.6181 120.167L31.9707 119.826L35.0202 115.7ZM34.1224 119.042L35.269 116.315L35.2383 116.3L33.5858 118.752L34.1224 119.042Z" fill="white"/>
<path d="M37.1769 122.42L35.4886 121.638L35.0116 122.661L34.3506 122.354L35.1138 120.701L35.4137 120.84C35.6402 120.665 35.8444 120.463 36.0219 120.239C36.3301 119.854 36.5952 119.436 36.8124 118.993C37.1292 118.376 37.4938 117.618 37.7391 117.106L39.5893 117.959L37.7511 121.929L38.1191 122.1L37.3541 123.753L36.7033 123.453L37.1769 122.42ZM37.0713 121.614L38.6199 118.265L38.0662 118.011C37.5739 119.034 37.3183 119.579 36.9367 120.137C36.6847 120.503 36.3996 120.845 36.0849 121.159L37.0713 121.614Z" fill="white"/>
<path d="M40.6437 118.413L41.3473 118.687L40.4035 121.106L40.2042 121.568L40.4222 121.292L42.1259 119.287L42.2264 119.033L42.9164 119.303L41.0764 124.017L40.395 123.747L41.3507 121.295L41.5586 120.843L41.3269 121.128L39.6317 123.125L39.521 123.406L38.8174 123.132L40.6437 118.413Z" fill="white"/>
<path d="M43.9387 119.661L44.6594 119.893L43.3169 124.058L44.0886 124.307L45.4311 120.142L46.1501 120.375L44.8093 124.54L45.1943 124.665L44.6355 126.396L43.9438 126.17L44.2846 125.091L42.3799 124.476L43.9387 119.661Z" fill="white"/>
<path d="M47.2334 120.692L47.9659 120.882L47.3185 123.395L47.1754 123.872L47.3594 123.571L48.799 121.379L48.8672 121.115L49.5844 121.299L48.3254 126.2L47.6082 126.015L48.2624 123.458L48.4123 122.983L48.2181 123.295L46.7819 125.488L46.7052 125.781L45.9744 125.592L47.2334 120.692Z" fill="white"/>
<path d="M50.6291 121.532L51.3719 121.677L50.8761 124.233L50.7603 124.719L50.9306 124.407L52.2424 122.13L52.2953 121.861L53.0244 122.004L52.0584 126.974L51.3293 126.832L51.8319 124.247L51.9545 123.765L51.7842 124.087L50.4741 126.359L50.4161 126.653L49.6733 126.509L50.6291 121.532Z" fill="white"/>
<path d="M55.7381 122.399L56.4911 122.478L56.2202 125.065L56.147 125.557L56.285 125.234L57.3957 122.848L57.4247 122.577L58.1624 122.653L57.6342 127.703L56.8966 127.625L57.1709 125.003L57.2509 124.513L57.1027 124.854L55.9936 127.239L55.9613 127.538L55.21 127.461L55.7381 122.399Z" fill="white"/>
<path d="M61.9429 128.001C61.0468 127.982 60.7367 127.396 60.7605 126.171L60.7912 124.526C60.8151 123.303 61.149 122.726 62.0434 122.744C62.8356 122.759 63.2513 123.299 63.2359 124.322V124.574L62.4727 124.559V124.16C62.4829 123.648 62.362 123.393 62.0332 123.388C61.7044 123.383 61.5732 123.631 61.5647 124.143L61.517 126.585C61.5084 127.096 61.6277 127.35 61.9565 127.357C62.2853 127.364 62.4182 127.113 62.4267 126.602V126.12L63.1899 126.133V126.457C63.1712 127.485 62.7402 128.016 61.9429 128.001Z" fill="white"/>
<path d="M64.4455 123.475L63.7521 123.497L63.7334 122.851L65.8681 122.788L65.8885 123.434L65.1934 123.454L65.3246 127.874L64.575 127.896L64.4455 123.475Z" fill="white"/>
<path d="M66.9105 122.72L67.8816 122.648L69.0349 127.642L68.2734 127.7L68.0724 126.689L67.3245 126.744L67.2819 127.766L66.5476 127.821L66.9105 122.72ZM67.9514 126.023L67.4522 123.102H67.4182L67.3432 126.06L67.9514 126.023Z" fill="white"/>
<path d="M69.3518 122.522L71.558 122.239L71.6432 122.892L70.1781 123.079L70.3484 124.443L70.7437 124.392C71.4524 124.301 72.1066 124.69 72.2446 125.755C72.3826 126.82 71.8715 127.289 71.0657 127.395L69.9907 127.533L69.3518 122.522ZM70.6534 126.795L70.9805 126.754C71.2991 126.711 71.57 126.502 71.4916 125.876C71.4064 125.194 71.1066 125.024 70.7743 125.058L70.4336 125.101L70.6534 126.795Z" fill="white"/>
<path d="M72.6912 122.062L73.4357 121.922L73.9144 124.479L73.9842 124.971L74.0251 124.622L74.4084 122.018L74.359 121.749L75.0882 121.612L76.0201 126.594L75.2892 126.73L74.8054 124.14L74.7424 123.645L74.6964 124.012L74.3113 126.606L74.3676 126.904L73.6231 127.042L72.6912 122.062Z" fill="white"/>
<path d="M77.8516 121.658L77.1923 121.829C77.3626 122.565 77.533 123.282 77.6659 123.942C77.7713 124.378 77.8414 124.822 77.8754 125.27C77.8754 125.709 77.7204 126.234 77.1854 126.369C77.1101 126.398 77.0292 126.41 76.9486 126.405L76.7783 125.74C76.8075 125.741 76.8367 125.738 76.8652 125.731C77.0747 125.68 77.1769 125.539 77.1701 125.23C77.1701 125.036 77.1088 124.695 76.9026 123.671C76.7561 122.971 76.5381 122.05 76.3711 121.328L78.4155 120.816L79.6489 125.73L78.9146 125.914L77.8516 121.658Z" fill="white"/>
<path d="M79.4651 120.52L80.1789 120.297L80.7718 122.195L81.1687 122.079C81.9388 121.841 82.5317 122.146 82.8724 123.221C83.1893 124.244 82.7974 124.793 82.0955 125.012L80.9881 125.353L79.4651 120.52ZM81.4924 124.5L81.8195 124.397C82.0461 124.327 82.3442 124.154 82.1143 123.417C81.8843 122.681 81.5555 122.638 81.2948 122.72L80.9694 122.823L81.4924 124.5Z" fill="white"/>
<path d="M82.6694 119.475L83.3713 119.211L84.1141 121.179L84.8876 120.886L84.1448 118.919L84.8467 118.653L86.6372 123.394L85.9387 123.66L85.1346 121.528L84.3612 121.821L85.1653 123.952L84.4634 124.218L82.6694 119.475Z" fill="white"/>
<path d="M86.8452 117.686C87.6578 117.323 88.1945 117.72 88.6953 118.842L89.3666 120.345C89.8657 121.466 89.8078 122.129 88.9884 122.494C88.1689 122.859 87.6391 122.46 87.1382 121.34L86.467 119.835C85.9678 118.716 86.0257 118.051 86.8452 117.686ZM87.9986 121.398C88.2081 121.865 88.4262 122.046 88.7277 121.909C89.0293 121.773 89.0395 121.493 88.8316 121.025L87.835 118.791C87.6254 118.322 87.4074 118.145 87.1075 118.279C86.8077 118.414 86.7941 118.695 87.0019 119.164L87.9986 121.398Z" fill="white"/>
<path d="M92.2934 120.9C91.4961 121.312 90.9424 120.943 90.3802 119.854L89.6255 118.388C89.0616 117.299 89.082 116.633 89.8776 116.222C90.5812 115.857 91.2064 116.135 91.675 117.043L91.7908 117.268L91.1093 117.619L90.9254 117.265C90.692 116.81 90.4637 116.643 90.1706 116.795C89.8776 116.946 89.881 117.227 90.1161 117.682L91.2422 119.864C91.4773 120.319 91.7056 120.484 91.9969 120.334C92.2883 120.184 92.2866 119.9 92.0515 119.445L91.83 119.015L92.5114 118.666L92.658 118.95C93.1299 119.864 93.0038 120.532 92.2934 120.9Z" fill="white"/>
<path d="M92.3479 115.728L91.75 116.068L91.4263 115.511L93.2713 114.438L93.595 114.995L92.997 115.336L95.2118 119.157L94.5627 119.533L92.3479 115.728Z" fill="white"/>
<path d="M93.8999 114.059L94.5268 113.648L95.6155 115.315L95.9562 115.094C96.6377 114.654 97.2868 114.785 97.9035 115.731C98.4844 116.622 98.2595 117.265 97.6428 117.665L96.6717 118.301L93.8999 114.059ZM96.9341 117.34L97.2237 117.152C97.423 117.023 97.6616 116.774 97.2408 116.13C96.82 115.486 96.4895 115.53 96.2612 115.682L95.9749 115.869L96.9341 117.34Z" fill="white"/>
</svg>
