<?xml version="1.0" encoding="UTF-8" standalone="no"?>
<!-- Generator: Adobe Illustrator 25.0.1, SVG Export Plug-In . SVG Version: 6.00 Build 0)  -->

<svg
   version="1.1"
   id="Слой_1"
   x="0px"
   y="0px"
   viewBox="0 0 1457 339.6408997"
   style="enable-background:new 0 0 1457 339.6408997;"
   xml:space="preserve"
   sodipodi:docname="g25_bluefill_black.svg"
   inkscape:version="1.3.2 (091e20e, 2023-11-25)"
   xmlns:inkscape="http://www.inkscape.org/namespaces/inkscape"
   xmlns:sodipodi="http://sodipodi.sourceforge.net/DTD/sodipodi-0.dtd"
   xmlns="http://www.w3.org/2000/svg"
   xmlns:svg="http://www.w3.org/2000/svg"><defs
   id="defs1" /><sodipodi:namedview
   id="namedview1"
   pagecolor="#505050"
   bordercolor="#eeeeee"
   borderopacity="1"
   inkscape:showpageshadow="0"
   inkscape:pageopacity="0"
   inkscape:pagecheckerboard="0"
   inkscape:deskcolor="#505050"
   inkscape:zoom="0.59439049"
   inkscape:cx="726.79494"
   inkscape:cy="223.75863"
   inkscape:window-width="1440"
   inkscape:window-height="701"
   inkscape:window-x="0"
   inkscape:window-y="25"
   inkscape:window-maximized="0"
   inkscape:current-layer="g1" />
<style
   type="text/css"
   id="style1">
	.st0{fill:#0037FF;}
</style>
<path
   class="st0"
   d="M118.0700073-0.0000305L0.7050171,337.6440125L0,339.6408386L341.7559814,224.743866l0.7050171-0.2351074  V-0.0000305H118.0700073z M185.2120361,80.9447937v95.4550781H158.309021V55.6869812h73.5429688L212.644043,80.9447937H185.2120361z   M258.8150024,176.3998718l-46.1699829-58.0949707v-4.4650879l44.1729736-58.152832h33.6589966l-46.8759766,60.3850098  l50.8699951,60.3278809H258.8150024z"
   id="path1" />
<g
   id="g1"
   style="fill:#111111;fill-opacity:1">
	<path
   id="path2"
   d="M585.8809814,74.5439072h0.0870361c-3.9030151-7.8920898-9.8880005-13.6169472-18.0410156-17.0859413   c-8.065979-3.4699707-17.434021-5.2041016-28.1019897-5.2041016c-14.1380005,0-25.3259888,3.0351562-33.6530151,9.1931152   c-8.3270264,6.1589394-13.9639893,14.3120155-16.9130249,24.3728065l24.3720093,7.6330566   c1.9949951-6.1589355,5.5510254-10.494873,10.5820312-13.0109863c5.0299683-2.5148926,10.2349854-3.7290039,15.6119995-3.7290039   c8.93396,0,15.2659912,1.9951172,19.0819702,5.8979492c3.1220093,3.2089844,4.8569946,8.0661621,5.2910156,14.3110352   c-4.684021,0.6940918-9.5410156,1.3881836-14.0510254,2.0820312c-7.5459595,1.0400391-14.5719604,2.255127-21.0769653,3.4689941   c-6.5050049,1.3010254-12.1430054,2.6889648-16.9130249,4.25c-6.3319702,2.1679688-11.5360107,4.8571777-15.526001,8.2399902   c-3.9899902,3.3830566-6.9389648,7.3720703-8.8469849,11.9689941c-1.90802,4.5969162-2.8619995,9.8010178-2.8619995,15.6130295   c0,6.592041,1.5609741,12.5761719,4.5969849,18.1269531c3.0360107,5.5510254,7.632019,9.8881836,13.6170044,13.184082   s13.3569946,4.9438477,21.9440308,4.9438477c10.7550049,0,19.776001-1.994873,26.9749756-6.0717773   c5.5510254-3.1220703,10.5809937-7.6320801,15.0050049-13.4440918v16.1330566h23.4180298v-73.5510178   c0-5.2041016-0.1730347-9.9750977-0.6930542-14.3979492C589.3510132,83.0439072,588.0499878,78.7939072,585.8809814,74.5439072z    M563.8510132,125.8920517c-0.1740112,4.4228439-0.9540405,8.3259201-2.4290161,11.7089767h-0.0869751   c-0.8670044,2.7749023-2.6020508,5.6379395-5.1170044,8.7597656c-2.5150146,3.1230469-5.9850464,5.7250977-10.2350464,7.8930664   s-9.4539795,3.2089844-15.5249634,3.2089844c-4.25,0-7.7200317-0.6938477-10.5820312-1.994873   s-5.0310059-3.1220703-6.5050049-5.3771973c-1.4749756-2.2548828-2.2549438-4.8579102-2.2549438-7.8068848   c0-2.6020508,0.6069946-4.8569336,1.7339478-6.7648926c1.1280518-1.9082031,2.776001-3.6430664,4.9440308-5.1171875   c2.1690063-1.4748535,4.7709961-2.7758713,7.8930054-3.9028244c3.2099609-1.0410156,6.8519897-1.9951172,11.0159912-2.8630371   c4.1630249-0.8669434,9.1069946-1.7341309,14.9179688-2.6879883c3.6430054-0.6071777,7.8930054-1.3010254,12.4900513-1.9951172   C564.1110229,121.0338974,564.0239868,123.2890244,563.8510132,125.8920517z"
   style="fill:#111111;fill-opacity:1" />
	<path
   id="path3"
   d="M632.5469971,85.3859482l-0.1740112,0.1740723c-0.6939697,9.8007812-1.5609741,18.907959-2.4279785,27.494873   c-0.9539795,8.5871582-1.9949951,16.1320724-3.1229858,22.7238693c-0.8670044,4.684082-1.90802,8.4140625-3.1220093,11.189209   c-1.2139893,2.7758789-2.9490356,4.6838379-5.2910156,5.7248535c-2.34198,0.9541016-5.7249756,1.1269531-10.0609741,0.2600098   v22.3771973c9.1069946,1.994873,16.4790039,2.2558594,22.1170044,0.8679199   c5.6380005-1.4750977,9.9749756-4.684082,13.18396-9.7141113c3.1220093-5.0310059,5.5510254-11.8828125,7.2860107-20.5568848   c0.7800293-3.8161621,1.473999-8.5,2.1680298-13.9641113c0.6939697-5.4638596,1.3009644-11.1889572,1.907959-17.2600021   c0.6069946-6.0720215,1.1279907-12.0559082,1.6480103-18.0410156c0.5200195-5.9848633,0.9539795-11.3620605,1.3010254-16.1330566   h38.0769653v94.8012619h26.6270142V55.4628487h-88.2089844C633.8480225,65.6969833,633.2410278,75.6718369,632.5469971,85.3859482z   "
   style="fill:#111111;fill-opacity:1" />
	<path
   id="path4"
   d="M844.4899902,74.5439072h0.0899658c-3.8999023-7.8920898-9.8899536-13.6169472-18.039978-17.0859413   c-8.0700073-3.4699707-17.4329834-5.2041016-28.1019897-5.2041016c-14.1369629,0-25.3259888,3.0351562-33.6530151,9.1931152   c-8.3259888,6.1589394-13.9639893,14.3120155-16.9129639,24.3728065l24.3720093,7.6330566   c1.9949951-6.1589355,5.5509644-10.494873,10.5819702-13.0109863c5.0310059-2.5148926,10.2349854-3.7290039,15.6119995-3.7290039   c8.934021,0,15.3519897,1.9951172,19.0820312,5.8979492c3.1199951,3.2089844,4.8599854,8.0661621,5.289978,14.3110352   c-4.6799927,0.6940918-9.539978,1.3881836-14.0499878,2.0820312c-7.5460205,1.0400391-14.5720215,2.255127-21.0770264,3.4689941   c-6.5050049,1.3010254-12.1430054,2.6889648-16.9129639,4.25c-6.3320312,2.1679688-11.5360107,4.8571777-15.526001,8.2399902   c-3.9890137,3.3830566-6.9379883,7.3720703-8.8470459,11.9689941c-1.907959,4.5969162-2.8619995,9.8010178-2.8619995,15.6130295   c0,6.592041,1.5610352,12.5761719,4.5970459,18.1269531c3.0360107,5.4650879,7.6329956,9.8881836,13.6170044,13.184082   c5.9849854,3.2958984,13.3579712,4.9438477,21.9439697,4.9438477c10.7559814,0,19.776001-1.994873,26.9750366-6.0717773   c5.5519409-3.1220703,10.5819702-7.6320801,15.0019531-13.4440918v16.1330566h23.4199829v-73.5510178   c0-5.2041016-0.1699219-9.9750977-0.6899414-14.3979492C847.9599609,83.0439072,846.6600342,78.7939072,844.4899902,74.5439072z    M822.460022,125.8920517c-0.1700439,4.4228439-0.9500122,8.3259201-2.4200439,11.7089767h-0.0899658   c-0.8699951,2.7749023-2.6000366,5.6379395-5.1199951,8.7597656c-2.5100098,3.1230469-5.9830322,5.7250977-10.2330322,7.8930664   s-9.4539795,3.2089844-15.526001,3.2089844c-4.25,0-7.7189941-0.6938477-10.5819702-1.994873   c-2.8619995-1.3010254-5.0300293-3.1220703-6.5050049-5.3771973c-1.473999-2.2548828-2.2550049-4.8579102-2.2550049-7.8068848   c0-2.6020508,0.6069946-4.8569336,1.7349854-6.7648926c1.1270142-1.9082031,2.7750244-3.6430664,4.9440308-5.1171875   c2.1679688-1.4748535,4.7699585-2.7758713,7.8930054-3.9028244c3.2089844-1.0410156,6.8519897-1.9951172,11.0149536-2.8630371   c4.1630249-0.8669434,9.1069946-1.7341309,14.9180298-2.6879883c3.6459961-0.6071777,7.8959961-1.3010254,12.4859619-1.9951172   C822.7199707,121.0338974,822.6400146,123.2890244,822.460022,125.8920517z"
   style="fill:#111111;fill-opacity:1" />
	<polygon
   id="polygon4"
   points="978.9100342,55.5487862 945.5100098,55.5487862 901.7099609,113.2279892 901.7099609,55.5487862    874.5600586,55.5487862 874.3900146,175.4169464 901.7099609,175.4169464 901.7099609,117.737999 947.5100098,175.4169464    982.9000244,175.4169464 932.4200439,115.482872  "
   style="fill:#111111;fill-opacity:1" />
	<polygon
   id="polygon5"
   points="1132.5,131.7899933 1132.5,55.5487862 1106.8199463,55.5487862 1106.8199463,175.4169464    1128.25,175.4169464 1185.3199463,97.1818466 1185.3199463,175.4169464 1210.9100342,175.4169464 1210.9100342,55.5487862    1189.7399902,55.5487862  "
   style="fill:#111111;fill-opacity:1" />
	<polygon
   id="polygon6"
   points="1232.0400391,175.4169464 1259.3599854,175.4169464 1259.3599854,117.737999    1259.3599854,113.2279892 1259.3599854,55.5487862 1232.3000488,55.5487862  "
   style="fill:#111111;fill-opacity:1" />
	<polygon
   id="polygon7"
   points="1303.74,55.40279 1259.8199,113.21993 1259.8199,117.6589 1305.73,175.41695 1341.1801,175.41695 1290.6,115.43893 1337.21,55.40279 "
   style="fill:#111111;fill-opacity:1"
   transform="translate(-0.49051056)" />
	<path
   id="path7"
   d="M1456.3100586,87.4679794c-0.4400635-4.4240723-1.7401123-8.6740723-3.9100342-12.9240723   c-3.9000244-7.8920898-9.8800049-13.6169472-18.0400391-17.0859413   c-8.0599365-3.4699707-17.4299316-5.2041016-28.0999756-5.2041016c-14.1400146,0-25.3200684,3.0351562-33.6500244,9.1931152   c-8.3299561,6.1589394-13.9699707,14.3120155-16.9100342,24.3728065l24.3699951,7.6330566   c1.9901123-6.1589355,5.5500488-10.494873,10.5800781-13.0109863c5.0300293-2.5148926,10.2299805-3.7290039,15.6099854-3.7290039   c8.9399414,0,15.2700195,1.9951172,19.0799561,5.8979492c3.1300049,3.2089844,4.8599854,8.0661621,5.3800049,14.3110352   c-4.6799316,0.6940918-9.539917,1.3881836-14.0499268,2.0820312c-7.5500488,1.0410156-14.5700684,2.255127-21.0800781,3.4689941   c-6.5,1.3010254-12.1400146,2.6889648-16.9099121,4.25c-6.3300781,2.1679688-11.5400391,4.8571777-15.5300293,8.2399902   c-3.9899902,3.3830566-6.9300537,7.3720703-8.8399658,11.9689941c-1.9100342,4.5969162-2.8601074,9.8010178-2.8601074,15.6130295   c0,6.592041,1.5600586,12.5761719,4.5900879,18.1269531c3.039917,5.4650879,7.6300049,9.8881836,13.6199951,13.184082   c5.9799805,3.2958984,13.3599854,4.9438477,21.9399414,4.9438477c10.7600098,0,19.7800293-1.994873,26.9799805-6.0717773   c5.5500488-3.1220703,10.5800781-7.6320801,15-13.4431152v16.1320801H1457v-73.5510178   C1457,96.6618271,1456.8299561,91.890831,1456.3100586,87.4679794z M1430.2900391,125.8920517   c-0.1800537,4.4228439-0.960083,8.3259201-2.4300537,11.7089767h-0.0899658   c-0.8699951,2.7749023-2.5999756,5.6379395-5.1199951,8.7597656c-2.5100098,3.1230469-5.9799805,5.7250977-10.2299805,7.8930664   s-9.4500732,3.2089844-15.5300293,3.2089844c-4.25,0-7.7099609-0.6938477-10.5799561-1.994873   c-2.8601074-1.3010254-5.0300293-3.1220703-6.5-5.3771973c-1.4801025-2.2548828-2.2600098-4.8579102-2.2600098-7.8059082   c0-2.6030273,0.6099854-4.8579102,1.7399902-6.7658691c1.1300049-1.9082031,2.7700195-3.6430664,4.9399414-5.1171875   c2.1700439-1.4748535,4.7700195-2.7758713,7.8900146-3.9028244c3.2099609-1.0410156,6.8599854-1.9951172,11.0200195-2.8630371   c4.1600342-0.8669434,9.1099854-1.7341309,14.9200439-2.6879883c3.6398926-0.6071777,7.8898926-1.3010254,12.4899902-1.9951172   C1430.5500488,121.0338974,1430.4599609,123.2900009,1430.2900391,125.8920517z"
   style="fill:#111111;fill-opacity:1" />
	<polygon
   id="polygon8"
   points="1027.0100098,55.4027901 986.9499512,55.4027901 986.9499512,55.5487862 986.9499512,79.3149033    1027.0100098,79.3149033 1027.0200195,79.3149033 1027.0200195,175.4169464 1053.7399902,175.4169464 1053.7399902,79.3149033    1093.8100586,79.3149033 1093.8100586,55.5487862 1027.0100098,55.5487862  "
   style="fill:#111111;fill-opacity:1" />
	<polygon
   id="polygon9"
   points="391.3670044,176.082962 418.1140137,176.082962 418.1140137,81.1659775 476.9050293,81.1659775    476.9050293,56.0688057 391.3670044,56.0688057  "
   style="fill:#111111;fill-opacity:1" />
</g>
</svg>
