<svg width="240" height="33" viewBox="0 0 240 33" fill="none" xmlns="http://www.w3.org/2000/svg">
<path d="M189.248 22.6095V6.64492H182.918V1.75195H201.558V6.64492H195.228V22.6095H189.248Z" fill="#0A132D"/>
<path d="M171.458 22.9952C169.439 22.9952 167.627 22.6198 166.022 21.8691C164.417 21.0924 163.135 19.9145 162.177 18.3353C161.245 16.7561 160.779 14.7756 160.779 12.3938V11.6171C160.779 9.33894 161.232 7.44906 162.138 5.94752C163.045 4.44598 164.274 3.31982 165.828 2.56904C167.407 1.79238 169.154 1.40405 171.07 1.40405C174.461 1.40405 177.024 2.28427 178.759 4.0447C180.494 5.77924 181.361 8.30339 181.361 11.6171V13.7918H166.915C166.967 14.8015 167.2 15.6428 167.614 16.3159C168.054 16.9891 168.611 17.4809 169.284 17.7916C169.957 18.0764 170.682 18.2188 171.458 18.2188C172.597 18.2188 173.491 18.0505 174.138 17.7139C174.811 17.3515 175.251 16.8726 175.458 16.2771H180.972C180.558 18.5294 179.536 20.2122 177.905 21.3254C176.274 22.4386 174.125 22.9952 171.458 22.9952ZM171.264 6.18052C170.539 6.18052 169.853 6.29702 169.206 6.53002C168.559 6.76302 168.028 7.15135 167.614 7.69501C167.226 8.21278 167.006 8.92472 166.954 9.83083H175.497C175.497 8.87295 175.303 8.13512 174.915 7.61734C174.526 7.07368 174.008 6.69829 173.361 6.49118C172.74 6.28407 172.041 6.18052 171.264 6.18052Z" fill="#0A132D"/>
<path d="M146.925 22.6095V6.64492H140.596V1.75195H159.236V6.64492H152.906V22.6095H146.925Z" fill="#0A132D"/>
<path d="M118.059 22.6095V1.75195H123.884V14.1785L132.621 1.75195H137.863V22.6095H132.038V9.9069L123.301 22.6095H118.059Z" fill="#0A132D"/>
<path d="M94.167 30.2573V1.7353H99.6813V4.53128C100.225 3.70284 101.027 2.95207 102.089 2.27896C103.176 1.57997 104.51 1.23047 106.089 1.23047C108.988 1.23047 111.189 2.0848 112.69 3.79345C114.192 5.50211 114.943 8.05214 114.943 11.4436V12.2202C114.943 14.5502 114.58 16.5048 113.855 18.084C113.13 19.6373 112.108 20.8153 110.788 21.6178C109.467 22.4204 107.901 22.8217 106.089 22.8217C104.924 22.8217 103.811 22.5628 102.749 22.045C101.714 21.5013 100.846 20.7247 100.147 19.715V30.2573H94.167ZM104.652 17.8899C105.843 17.8899 106.827 17.4109 107.603 16.453C108.406 15.4693 108.807 14.0583 108.807 12.2202V11.4436C108.807 9.65724 108.419 8.33692 107.642 7.48259C106.891 6.60238 105.895 6.16227 104.652 6.16227C103.823 6.16227 103.06 6.34349 102.361 6.70593C101.688 7.04248 101.144 7.56026 100.73 8.25925C100.341 8.95825 100.147 9.82552 100.147 10.8611V12.8027C100.147 13.8642 100.341 14.7832 100.73 15.5599C101.144 16.3106 101.688 16.8931 102.361 17.3074C103.06 17.6957 103.823 17.8899 104.652 17.8899Z" fill="#0A132D"/>
<path d="M80.5865 22.9952C78.6707 22.9952 76.9103 22.6198 75.3052 21.8691C73.726 21.1183 72.4574 19.9533 71.4996 18.3741C70.5676 16.769 70.1016 14.7756 70.1016 12.3938V11.6171C70.1016 9.39072 70.5676 7.52673 71.4996 6.02519C72.4574 4.49775 73.726 3.34571 75.3052 2.56904C76.9103 1.79238 78.6707 1.40405 80.5865 1.40405C82.5281 1.40405 84.2886 1.79238 85.8678 2.56904C87.447 3.34571 88.7026 4.49775 89.6346 6.02519C90.5925 7.52673 91.0714 9.39072 91.0714 11.6171V12.3938C91.0714 14.7497 90.5925 16.7172 89.6346 18.2964C88.7026 19.8498 87.447 21.0277 85.8678 21.8302C84.2886 22.6069 82.5281 22.9952 80.5865 22.9952ZM80.5865 18.0246C81.5185 18.0246 82.3081 17.8046 82.9553 17.3644C83.6025 16.8984 84.0944 16.2383 84.431 15.384C84.7675 14.5296 84.9358 13.5329 84.9358 12.3938V11.6171C84.9358 10.5816 84.7675 9.67549 84.431 8.89883C84.0944 8.12217 83.6025 7.51379 82.9553 7.07368C82.3081 6.60768 81.5185 6.37468 80.5865 6.37468C79.6545 6.37468 78.8649 6.60768 78.2177 7.07368C77.5705 7.51379 77.0786 8.12217 76.742 8.89883C76.4055 9.67549 76.2372 10.5816 76.2372 11.6171V12.3938C76.2372 13.5847 76.4055 14.6073 76.742 15.4616C77.0786 16.2901 77.5705 16.9243 78.2177 17.3644C78.8649 17.8046 79.6545 18.0246 80.5865 18.0246Z" fill="#0A132D"/>
<path d="M47.1768 22.6095V1.75195H53.0017V14.3361L61.7392 1.75195H66.9816V22.6095H61.1567V10.0644L52.4192 22.6095H47.1768Z" fill="#0A132D"/>
<path d="M23.2852 30.2575V1.7353H28.7995V4.53128C29.3431 3.70284 30.1457 2.95207 31.2071 2.27896C32.2944 1.57997 33.6277 1.23047 35.2069 1.23047C38.1064 1.23047 40.307 2.0848 41.8085 3.79345C43.3101 5.50211 44.0608 8.05214 44.0608 11.4436V12.2202C44.0608 14.5502 43.6984 16.5048 42.9735 18.084C42.2486 19.6373 41.226 20.8153 39.9057 21.6178C38.5854 22.4204 37.0191 22.8216 35.2069 22.8216C34.0419 22.8216 32.9287 22.5628 31.8673 22.045C30.8317 21.5013 29.9644 20.7247 29.2654 19.715V30.2575H23.2852ZM33.7701 17.8899C34.961 17.8899 35.9447 17.4109 36.7214 16.453C37.5239 15.4693 37.9252 14.0583 37.9252 12.2202V11.4436C37.9252 9.65724 37.5369 8.33692 36.7602 7.48259C36.0095 6.60238 35.0127 6.16227 33.7701 6.16227C32.9416 6.16227 32.1779 6.34349 31.4789 6.70593C30.8058 7.04248 30.2622 7.56026 29.8479 8.25925C29.4596 8.95825 29.2654 9.82552 29.2654 10.8611V12.8027C29.2654 13.8642 29.4596 14.7832 29.8479 15.5599C30.2622 16.3106 30.8058 16.8931 31.4789 17.3074C32.1779 17.6957 32.9416 17.8899 33.7701 17.8899Z" fill="#0A132D"/>
<path d="M0 22.6095V1.75195H19.4165V22.6095H13.4362V6.64492H5.98029V22.6095H0Z" fill="#0A132D"/>
<g clip-path="url(#clip0_7563_362)">
<path d="M239.791 15.7236L231.865 23.5851L216.01 7.86218L223.938 0.000732422L239.793 15.7236H239.791Z" fill="#0E1D4D"/>
<path d="M231.864 7.86218L216.009 23.5851L208.083 15.7236L223.938 0.000732422L231.864 7.86218Z" fill="#2947A0"/>
</g>
<defs>
<clipPath id="clip0_7563_362">
<rect width="31.7078" height="23.5843" fill="white" transform="translate(208.083 0.000732422)"/>
</clipPath>
</defs>
</svg>
